<svg xmlns="http://www.w3.org/2000/svg" xmlns:xlink="http://www.w3.org/1999/xlink" width="1920" height="300" viewBox="0 0 1920 300">
  <defs>
    <clipPath id="clip-path">
      <rect id="Rectangle_51" data-name="Rectangle 51" width="1920" height="300" fill="#fff" stroke="#707070" stroke-width="1"/>
    </clipPath>
    <clipPath id="clip-path-2">
      <rect id="Rectangle_50" data-name="Rectangle 50" width="2555.937" height="245.668" fill="#436550"/>
    </clipPath>
  </defs>
  <g id="Mask_Group_8" data-name="Mask Group 8" clip-path="url(#clip-path)">
    <g id="Group_67" data-name="Group 67" transform="translate(-59.674 46.333)">
      <g id="Group_66" data-name="Group 66" clip-path="url(#clip-path-2)">
        <path id="Path_1141" data-name="Path 1141" d="M3.125,195.019c.755.767,1.519,1.483,2.289,2.122C32.54,219.7,72.872,220.823,108.455,221.811l3.7.1c19.155.546,37.934-3.918,56.1-8.237,10.019-2.382,20.378-4.845,30.735-6.46,31.758-4.951,65.149-.672,96.627,4.134,16.778,2.562,33.793,5.613,50.249,8.566,52.743,9.462,107.282,19.247,161.959,14.257,23.985-2.189,47.655-5.774,70.545-9.241,31.31-4.744,60.885-9.224,91.429-10.5,34.639-1.443,64.33,1.532,93.445,9.365,2.929.788,12.093,2.783,14.76,3.2a2.985,2.985,0,0,1,1.3-.019c2.667-.415,11.831-2.41,14.761-3.2,29.115-7.833,58.806-10.808,93.445-9.365,30.543,1.273,60.118,5.753,91.429,10.5,22.889,3.468,46.56,7.054,70.545,9.243,54.677,4.99,109.216-4.794,161.959-14.257,16.455-2.953,33.47-6,50.248-8.567,31.479-4.8,64.869-9.084,96.628-4.133,10.357,1.614,20.716,4.078,30.735,6.46,18.16,4.318,36.941,8.783,56.094,8.237l3.7-.1c35.584-.988,75.916-2.108,103.043-24.669,7.6-6.319,14.891-19.2,16.605-29.334a8.207,8.207,0,0,0,.1-1.632c-9.353-10.152-4.541-28.04-1.345-39.916.4-1.475.775-2.88,1.081-4.118a12.44,12.44,0,0,0-1.08-1.829c-3.753-5.279-11.794-8.2-18.255-10.55-.987-.358-1.937-.7-2.833-1.042q-2.187-.829-4.368-1.642c-20.865-7.807-40.574-15.18-50.377-37.293-3.041-6.857-3.792-13.816-4.587-21.182l-.165-1.526c-1.016-9.274-1.84-18.529-2.637-27.48-.017-.192-.061-.574-.121-1.1-1.722-15.009-.847-18.134,1.248-18.46,1.18-.182,2,1.066,2.87,2.389.146.221.346.525.413.6a25.585,25.585,0,0,0,4.619,3.629l.474.318a80.008,80.008,0,0,0,10.633,5.7c2.885,1.363,5.869,2.772,8.7,4.453,5.724,3.4,12.088,6.457,18.243,9.413,20.092,9.647,40.868,19.623,46.6,44,2.925,12.43,1.132,28.538-.471,39.576-.154,1.068-2.194,9.547-5.523,11.628a3.305,3.305,0,0,1-.932.409c2.274,5.782.7,12.451-.833,18.935-1.158,4.908-2.254,9.542-1.763,13.711a26.746,26.746,0,0,0,1.214,4.781l.16.5c.077-.121.156-.244.236-.366.423-6.027,3.414-10.971,8.948-14.761a101.513,101.513,0,0,1,15.624-8.585c1.885-.853,3.773-1.662,5.641-2.427a13.169,13.169,0,0,1,3.279-3.053c.245-.63.473-1.282.7-1.944.353-1.012.719-2.057,1.156-3.028,3.912-8.687,9-18.287,17.1-23.6,5.307-3.484,11.435-5.017,16.182-5.963,8.894-1.773,18.075-2,25.982-2.066,1.579-.015,3.158-.019,4.737-.024,1.961-.007,3.989-.012,5.98-.037a1.581,1.581,0,0,1,1.719.977c.471,1.318-.949,2.528-4.207,5.14-.828.664-1.611,1.293-2.089,1.743-2.719,2.555-4.451,5.669-6.3,9-3.986,7.163-8.14,14.024-15.116,19.215a52.627,52.627,0,0,1-18.609,8.65c-6.373,1.584-18.554,3.463-29.276-1.465-.08.053-.16.105-.242.156-9.614,5.9-17.214,10.921-22.588,14.933-2,1.5-4.439,4.864-6.387,7.829-.493,10.627,7.773,22.7,12.994,30.326,14.5,21.173,63.226,23.317,86.093,19.759,16.162-2.514,32.659-4.093,48.613-5.62,17.418-1.667,35.431-3.39,53.08-6.337a285.2,285.2,0,0,1,116.958,5.565c18.667,4.971,36.87,12.169,54.472,19.129,12.293,4.861,25,9.888,37.748,14.1,33.532,11.093,68.951-3.117,87.079-12.575a1.819,1.819,0,0,1,1.248-.027c17.794,10.075,52.7,25.491,86.6,15.555,12.879-3.777,25.756-8.364,38.208-12.8,17.831-6.352,36.268-12.921,55.1-17.249a285.2,285.2,0,0,1,117.08-1.551c17.537,3.551,35.48,5.891,52.832,8.155,15.893,2.073,32.326,4.217,48.391,7.283,21.821,4.166,67.624,3.885,84.716-14.426.9.116,1.795.225,2.692.334-9.354,11.162-27.385,15.592-41.16,17.319-18.408,2.309-36.645.893-46.669-1.021-16-3.054-32.4-5.194-48.26-7.261-17.391-2.269-35.374-4.615-52.988-8.18-36.978-7.486-79.307-6.926-116.132,1.538-18.7,4.3-37.075,10.845-54.845,17.178-12.482,4.447-25.39,9.045-38.331,12.84a84.538,84.538,0,0,1-26.792,3.2,109.257,109.257,0,0,1-18.689-2.327,151.78,151.78,0,0,1-42.365-16.361,151.816,151.816,0,0,1-42.994,14.945,109.368,109.368,0,0,1-18.757,1.686,84.51,84.51,0,0,1-26.666-4.118c-12.8-4.235-25.545-9.273-37.869-14.146-17.542-6.938-35.682-14.11-54.223-19.047-36.512-9.722-78.8-11.734-116.01-5.52-17.726,2.958-35.778,4.686-53.237,6.357-15.921,1.523-32.385,3.1-48.48,5.6-10.085,1.568-28.36,2.358-46.678-.58-14.262-2.287-33.06-7.637-41.614-20.129-4.777-6.976-10.064-15.1-12.33-23.27-.049-.174-.1-.349-.141-.522-1.8,10.587-9.427,24.056-17.381,30.67-12.37,10.289-28.593,17.124-49.594,20.9-18.228,3.274-37.669,3.814-54.821,4.29l-3.7.1c-19.452.554-38.376-3.945-56.679-8.3-9.976-2.373-20.292-4.825-30.561-6.425-31.443-4.9-64.638-.646-95.943,4.134-16.749,2.558-33.749,5.608-50.191,8.557-43,7.714-87.181,15.642-131.749,15.641-10.252,0-20.53-.419-30.812-1.358-24.052-2.2-47.754-5.785-70.677-9.257-61.968-9.388-120.5-18.253-183.954-1.184-1.532.413-5.433,1.309-9.076,2.085-1.927.411-3.567.743-4.747.959-.777.142-1.386.253-1.865.288a8.8,8.8,0,0,1-2.479-.269c-1.18-.216-2.821-.547-4.748-.957-3.641-.776-7.544-1.674-9.075-2.085-63.457-17.071-121.985-8.2-183.954,1.182-22.922,3.472-46.627,7.063-70.678,9.257-10.282.939-20.561,1.358-30.812,1.358-44.567,0-88.749-7.926-131.747-15.641-16.441-2.949-33.442-6-50.192-8.557-31.3-4.78-64.5-9.036-95.941-4.134-10.27,1.6-20.585,4.054-30.561,6.427-18.3,4.351-37.229,8.85-56.68,8.3l-3.7-.1c-17.152-.475-36.594-1.015-54.823-4.29-21-3.773-37.223-10.609-49.594-20.9A37.068,37.068,0,0,1,0,194.941c1.041.031,2.083.052,3.125.079m1568.591-82.266a37.446,37.446,0,0,1-.481,6.424c1.855-2.15,3.533-7.7,3.781-9.409,1.576-10.855,3.344-26.681.507-38.738-5.489-23.33-25.773-33.07-45.39-42.489-6.2-2.977-12.608-6.055-18.418-9.506-2.739-1.628-5.673-3.014-8.51-4.354a81.71,81.71,0,0,1-10.928-5.865l-.47-.314a27.238,27.238,0,0,1-5.022-3.976,7.369,7.369,0,0,1-.634-.884c-.146-.222-.406-.615-.648-.944-.339,1.286-.573,4.979.636,15.523.064.553.109.953.128,1.157.8,8.939,1.619,18.181,2.632,27.435l.166,1.528c.775,7.188,1.507,13.977,4.406,20.513,9.421,21.25,28.7,28.464,49.111,36.1q2.185.817,4.378,1.644c.885.336,1.828.678,2.805,1.033,5.971,2.17,13.233,4.809,17.71,9.436-.692-6.226-1.5-11.835-3.6-17.024-3.937-9.714-11.091-17.7-18.01-25.431l-2.653-2.968c-2.989-3.339-6.079-6.793-9.048-10.26-1.339-1.564-2.643-3.1-3.861-4.689-.118-.154-.258-.322-.406-.5a6.816,6.816,0,0,1-1.624-2.732,1.373,1.373,0,0,1,.283-1.418,1.4,1.4,0,0,1,1.02-.421c.84.005,2.564,0,18.454,16.427l.554.573c9.816,10.007,22.893,25.467,23.134,44.129m-2.27,1.8q.036-.891.024-1.775c-.23-17.854-12.946-32.855-22.491-42.586-.1-.105-.3-.3-.566-.583-6.914-7.15-11.033-11.065-13.483-13.2.939,1.174,1.928,2.337,2.938,3.516,2.952,3.448,6.034,6.891,9.015,10.222l2.653,2.968c7.047,7.87,14.334,16.009,18.418,26.085a59.2,59.2,0,0,1,3.491,15.358m.1,11.792c-.043.157-.085.316-.128.474-2.54,9.441-6.146,22.837-2.471,32.415a23.791,23.791,0,0,1-.99-4.2c-.538-4.563.655-9.61,1.807-14.491,1.189-5.029,2.333-9.871,1.783-14.2m60.441,10.4a50.374,50.374,0,0,0,17.81-8.272c6.618-4.926,10.633-11.564,14.511-18.536,1.921-3.454,3.737-6.718,6.709-9.511.543-.51,1.359-1.165,2.223-1.859.692-.555,1.752-1.4,2.526-2.1-1.546.013-3.1.017-4.607.023-1.575,0-3.149.009-4.724.024-7.8.069-16.861.289-25.563,2.024-4.547.905-10.4,2.366-15.389,5.637-7.618,5-12.51,14.257-16.288,22.65-.281.623-.53,1.285-.777,1.976a120.343,120.343,0,0,1,13.3-6.9c7.152-3.2,16.176-6.574,18.549-4.515a1.377,1.377,0,0,1,.473,1.229c-.122.972-1.1,1.95-5.874,4.34l-.23.114a154.362,154.362,0,0,1-18.928,8.091c-3.05,1.082-6.4,2.3-9.88,3.66a10.392,10.392,0,0,1-.743,1c9.883,4.142,20.995,2.4,26.9.932m-23.427-5.385c2.233-.836,4.382-1.611,6.4-2.326a152.166,152.166,0,0,0,18.657-7.974l.248-.124c1.772-.885,2.884-1.52,3.58-1.964-1.784.153-5.447,1.011-12.094,3.794a124.969,124.969,0,0,0-14.615,7.255c-.816.482-1.536.928-2.174,1.338m-29.481,19.389c4.687-3.5,11.035-7.75,18.906-12.664-.23.1-.461.205-.691.31a99.487,99.487,0,0,0-15.281,8.392,17.936,17.936,0,0,0-6.783,8.007,22.111,22.111,0,0,1,3.849-4.045" transform="translate(0 0)" fill="#436550"/>
      </g>
    </g>
  </g>
</svg>
