<svg xmlns="http://www.w3.org/2000/svg" width="797.423" height="367.061" viewBox="0 0 797.423 367.061">
  <g id="Group_57" data-name="Group 57" transform="translate(-546 -6047.939)">
    <path id="Path_1138" data-name="Path 1138" d="M68.225,46.891l.047-.134C76.115,24.39,93.115,11.142,118,8.419c.013.021-9.824-2.651-23.593-5.49C38.486-8.792,7.857,15.066,11.113,67.4c-.288.558-.576,1.114-.857,1.677Q8.672,72.3,7.211,75.6c-.96,2.215-1.851,4.485-2.715,6.767q-.645,1.715-1.258,3.449c-.4,1.164-.775,2.35-1.148,3.534Q.979,92.907,0,96.542L4.182,100Q5.029,96.32,6,92.711c.327-1.2.655-2.4,1.01-3.589s.737-2.35,1.121-3.516c.772-2.328,1.571-4.646,2.439-6.914s1.8-4.486,2.768-6.688a143.344,143.344,0,0,1,10.02-18.775q2.043-2.823,4.24-5.5A124.386,124.386,0,0,1,47.294,28.382q2.739-2.119,5.575-4.127c1.912-1.313,3.839-2.607,5.824-3.829A119.8,119.8,0,0,1,71.08,13.709,114.645,114.645,0,0,0,59.421,21.26c-1.861,1.36-3.663,2.791-5.448,4.24q-2.644,2.212-5.193,4.534A125.829,125.829,0,0,0,30.673,50.949,129.331,129.331,0,0,0,17.18,76.012q-.257.643-.509,1.29c25.9,1.835,44.054-9.3,51.555-30.412" transform="translate(546 6047.939)" fill="#35674e"/>
    <path id="Path_1139" data-name="Path 1139" d="M932.282,602.448c1.571-15.451-3.039-35.3-15.735-58.01a67.352,67.352,0,0,1-7.74,8.932c-18.206,18.425-35.526,48.141-40.754,78.7a52.87,52.87,0,0,0,6.385-1.633q2.392-.751,4.715-1.608,2.25-.941,4.428-1.984a38.441,38.441,0,0,0,4.209-2.272c1.347-.824,2.7-1.65,3.972-2.566a54.386,54.386,0,0,0,21.18-31.659,61.088,61.088,0,0,1-6.567,19.755,55.917,55.917,0,0,1-11.672,15l-.035.031a29.765,29.765,0,0,1-7.282,4.786,106,106,0,0,1-47.655,9.792q3.365,2.369,6.721,4.718a100.352,100.352,0,0,0,36.854-8.225c24.951-.057,46.181-6.3,48.976-33.765" transform="translate(410.846 5770.562)" fill="#35674e"/>
  </g>
</svg>
