<svg xmlns="http://www.w3.org/2000/svg" width="180.455" height="60.443" viewBox="0 0 180.455 60.443">
  <g id="birdsinparadise" transform="translate(-18.115 -5.042)">
    <g id="Group_52" data-name="Group 52" transform="translate(18.3 5.3)">
      <g id="Group_49" data-name="Group 49" transform="translate(72.297 11.486)">
        <g id="Group_46" data-name="Group 46">
          <path id="Path_79" data-name="Path 79" d="M80.854,33.554H71.8V14.5h8.514a8.984,8.984,0,0,1,2.838.405,4.581,4.581,0,0,1,1.892,1.216,5.654,5.654,0,0,1,1.081,1.622,4.6,4.6,0,0,1,.27,1.892,4.832,4.832,0,0,1-.541,2.568A3.658,3.658,0,0,1,84.5,23.689a4.741,4.741,0,0,1,1.081.676,3.157,3.157,0,0,1,.946.946,4.227,4.227,0,0,1,.676,1.351,6.783,6.783,0,0,1,.27,1.622,4.513,4.513,0,0,1-.405,2.027,3.689,3.689,0,0,1-1.216,1.622,7.162,7.162,0,0,1-2.027,1.081A7.272,7.272,0,0,1,80.854,33.554ZM80.719,17.2H74.773v5.541h5.811a4.6,4.6,0,0,0,1.351-.135,2.716,2.716,0,0,0,1.081-.541,3.583,3.583,0,0,0,.676-.811,3.946,3.946,0,0,0,.27-1.216,2.3,2.3,0,0,0-.135-.946c-.135-.27-.27-.676-.541-.811a9.484,9.484,0,0,0-1.216-.811A4,4,0,0,0,80.719,17.2Zm.135,8.108H74.638v5.541h6.486a4.648,4.648,0,0,0,2.7-.676,2.364,2.364,0,0,0,.946-1.892A3.18,3.18,0,0,0,84.5,27.2a2.424,2.424,0,0,0-.676-.946,2.613,2.613,0,0,0-1.216-.676A6,6,0,0,0,80.854,25.311Z" transform="translate(-71.8 -13.554)" fill="#009992"/>
          <path id="Path_80" data-name="Path 80" d="M85,17.578V14.2h2.973v3.378Zm.135,16.081V19.2h2.7V33.659h-2.7Z" transform="translate(-67.162 -13.659)" fill="#009992"/>
          <path id="Path_81" data-name="Path 81" d="M96.6,20.4a4.316,4.316,0,0,0-1.892.405,4.224,4.224,0,0,0-1.486,1.216,7.28,7.28,0,0,0-.946,1.757A5.6,5.6,0,0,0,92,25.943V32.43H89.3V17.97H92v2.3c.135-.27.405-.541.676-.946.27-.27.676-.541.946-.811a3.136,3.136,0,0,1,1.351-.541A6.783,6.783,0,0,1,96.6,17.7h.541v2.7H96.6Z" transform="translate(-65.651 -12.43)" fill="#009992"/>
          <path id="Path_82" data-name="Path 82" d="M107.022,33.8V32.178a5.346,5.346,0,0,1-2.027,1.351,8,8,0,0,1-2.7.541,6.268,6.268,0,0,1-2.838-.541,6.5,6.5,0,0,1-2.162-1.622,7.086,7.086,0,0,1-1.351-2.432A10.542,10.542,0,0,1,95.4,26.5a7.272,7.272,0,0,1,.541-2.973A7.086,7.086,0,0,1,97.292,21.1a6.5,6.5,0,0,1,2.162-1.622,6.646,6.646,0,0,1,2.838-.541,6.05,6.05,0,0,1,2.7.541,5.346,5.346,0,0,1,2.027,1.351V13.8h2.7v20h-2.7ZM102.7,21.638a4.316,4.316,0,0,0-1.892.405,3.832,3.832,0,0,0-1.486,1.081,4.673,4.673,0,0,0-.946,1.622,4.3,4.3,0,0,0-.27,1.892,7.976,7.976,0,0,0,.27,1.892,3.5,3.5,0,0,0,.946,1.486,4.235,4.235,0,0,0,1.486,1.081,4.617,4.617,0,0,0,3.784,0,2.7,2.7,0,0,0,1.351-1.081,3.221,3.221,0,0,0,.811-1.486,7.976,7.976,0,0,0,.27-1.892,7.976,7.976,0,0,0-.27-1.892l-.811-1.622a5.291,5.291,0,0,0-1.351-1.081A4.316,4.316,0,0,0,102.7,21.638Z" transform="translate(-63.508 -13.8)" fill="#009992"/>
          <path id="Path_83" data-name="Path 83" d="M113.851,32.595a8.713,8.713,0,0,1-2.7-.405,4.983,4.983,0,0,1-1.892-1.081,4.661,4.661,0,0,1-1.216-1.622,8.406,8.406,0,0,1-.541-2.162h2.838a2.546,2.546,0,0,0,.27,1.081,2.424,2.424,0,0,0,.676.946,2.716,2.716,0,0,0,1.081.541,5.04,5.04,0,0,0,1.622.27h.946a3.18,3.18,0,0,0,1.081-.27c.27-.135.676-.27.811-.541a1.227,1.227,0,0,0,.405-.946,1.921,1.921,0,0,0-.27-.811,2.178,2.178,0,0,0-.946-.541c-.135-.135-.405-.135-.676-.27a66879099524498.086,66879099524498.086,0,0,1-1.622-.27c-.27,0-.541-.135-.811-.135-.541-.135-1.081-.27-1.757-.405a8.266,8.266,0,0,1-1.622-.676,3.191,3.191,0,0,1-1.081-1.216,3.381,3.381,0,0,1-.405-1.757,4.112,4.112,0,0,1,1.486-3.243A6.442,6.442,0,0,1,113.716,18a6.546,6.546,0,0,1,2.432.405,7.281,7.281,0,0,1,1.757.946,6,6,0,0,1,1.081,1.486,8.74,8.74,0,0,1,.541,1.757h-2.838a1.921,1.921,0,0,0-.27-.811,1.349,1.349,0,0,0-.541-.676,2.018,2.018,0,0,0-.946-.405,4.166,4.166,0,0,0-1.351-.135,4.62,4.62,0,0,0-2.3.405,1.419,1.419,0,0,0-.676,1.216,1.531,1.531,0,0,0,1.216,1.351c.27.135.405.135.676.27.27,0,.541.135.811.135s.541.135.811.135.541.135.811.135c.541.135,1.081.27,1.757.405a4.567,4.567,0,0,1,1.622.811,3.191,3.191,0,0,1,1.081,1.216,3.741,3.741,0,0,1,.405,1.757,4.316,4.316,0,0,1-.405,1.892,2.958,2.958,0,0,1-1.216,1.351,4.738,4.738,0,0,1-1.892.811C115.473,32.459,114.662,32.595,113.851,32.595Z" transform="translate(-59.257 -12.324)" fill="#009992"/>
        </g>
        <g id="Group_47" data-name="Group 47" transform="translate(0.135 23.243)">
          <path id="Path_84" data-name="Path 84" d="M80.414,44.368H74.6v6.486H71.9V31.8h8.514a8.713,8.713,0,0,1,2.7.405,6.853,6.853,0,0,1,2.162,1.216,5.346,5.346,0,0,1,1.351,2.027,8.333,8.333,0,0,1,0,5.135,6.653,6.653,0,0,1-1.351,2.027,4.784,4.784,0,0,1-2.162,1.216A5.691,5.691,0,0,1,80.414,44.368ZM80.278,34.5H74.6v7.162h5.676a3.752,3.752,0,0,0,2.973-.946,3.484,3.484,0,0,0,.946-2.7,3.179,3.179,0,0,0-.946-2.568A3.752,3.752,0,0,0,80.278,34.5Z" transform="translate(-71.9 -30.719)" fill="#009992"/>
          <path id="Path_85" data-name="Path 85" d="M95.222,49.765V48.143a5.346,5.346,0,0,1-2.027,1.351,8,8,0,0,1-2.7.541,6.268,6.268,0,0,1-2.838-.541,6.5,6.5,0,0,1-2.162-1.622,7.086,7.086,0,0,1-1.351-2.432,10.542,10.542,0,0,1-.541-2.973,7.272,7.272,0,0,1,.541-2.973,7.086,7.086,0,0,1,1.351-2.432,6.5,6.5,0,0,1,2.162-1.622,6.646,6.646,0,0,1,2.838-.541,6.05,6.05,0,0,1,2.7.541,5.346,5.346,0,0,1,2.027,1.351V35.17h2.7V49.63h-2.7ZM90.9,37.6a4.316,4.316,0,0,0-1.892.405,3.833,3.833,0,0,0-1.486,1.081,4.673,4.673,0,0,0-.946,1.622,7.139,7.139,0,0,0-.135,1.757,7.976,7.976,0,0,0,.27,1.892,3.5,3.5,0,0,0,.946,1.486,4.235,4.235,0,0,0,1.486,1.081,4.617,4.617,0,0,0,3.784,0,2.7,2.7,0,0,0,1.351-1.081,3.221,3.221,0,0,0,.811-1.486,6.757,6.757,0,0,0,0-3.784l-.811-1.622a5.291,5.291,0,0,0-1.351-1.081A10.431,10.431,0,0,0,90.9,37.6Z" transform="translate(-67.789 -29.63)" fill="#009992"/>
          <path id="Path_86" data-name="Path 86" d="M103.8,37.7a4.316,4.316,0,0,0-1.892.405,4.224,4.224,0,0,0-1.486,1.216,7.281,7.281,0,0,0-.946,1.757,5.6,5.6,0,0,0-.27,2.162V49.73H96.5V35.27h2.7v2.3c.135-.27.405-.541.676-.946.27-.27.676-.541.946-.811a3.136,3.136,0,0,1,1.351-.541A6.783,6.783,0,0,1,103.8,35h.541v2.7Z" transform="translate(-63.257 -29.595)" fill="#009992"/>
          <path id="Path_87" data-name="Path 87" d="M114.222,49.765V48.143a5.346,5.346,0,0,1-2.027,1.351,8,8,0,0,1-2.7.541,6.268,6.268,0,0,1-2.838-.541,6.5,6.5,0,0,1-2.162-1.622,7.086,7.086,0,0,1-1.351-2.432,10.542,10.542,0,0,1-.541-2.973,7.272,7.272,0,0,1,.541-2.973,7.086,7.086,0,0,1,1.351-2.432,6.5,6.5,0,0,1,2.162-1.622,6.646,6.646,0,0,1,2.838-.541,6.05,6.05,0,0,1,2.7.541,5.346,5.346,0,0,1,2.027,1.351V35.17h2.7V49.63h-2.7ZM109.762,37.6a4.316,4.316,0,0,0-1.892.405,3.833,3.833,0,0,0-1.486,1.081,4.673,4.673,0,0,0-.946,1.622,4.3,4.3,0,0,0-.27,1.892,7.976,7.976,0,0,0,.27,1.892,3.5,3.5,0,0,0,.946,1.486,4.235,4.235,0,0,0,1.486,1.081,4.617,4.617,0,0,0,3.784,0,2.7,2.7,0,0,0,1.351-1.081,3.221,3.221,0,0,0,.811-1.486,6.757,6.757,0,0,0,0-3.784l-.811-1.622a5.291,5.291,0,0,0-1.351-1.081A3.924,3.924,0,0,0,109.762,37.6Z" transform="translate(-61.113 -29.63)" fill="#009992"/>
          <path id="Path_88" data-name="Path 88" d="M126.322,51.135V49.514a5.346,5.346,0,0,1-2.027,1.351,8,8,0,0,1-2.7.541,6.268,6.268,0,0,1-2.838-.541,6.5,6.5,0,0,1-2.162-1.622,7.086,7.086,0,0,1-1.351-2.432,10.542,10.542,0,0,1-.541-2.973,7.272,7.272,0,0,1,.541-2.973,7.086,7.086,0,0,1,1.351-2.432,6.5,6.5,0,0,1,2.162-1.622,6.646,6.646,0,0,1,2.838-.541,6.05,6.05,0,0,1,2.7.541,5.346,5.346,0,0,1,2.027,1.351V31h2.7V51h-2.7ZM122,38.973a4.316,4.316,0,0,0-1.892.405,3.833,3.833,0,0,0-1.486,1.081,4.673,4.673,0,0,0-.946,1.622,4.3,4.3,0,0,0-.27,1.892,7.976,7.976,0,0,0,.27,1.892,3.5,3.5,0,0,0,.946,1.486,4.235,4.235,0,0,0,1.486,1.081,4.617,4.617,0,0,0,3.784,0,2.7,2.7,0,0,0,1.351-1.081,3.221,3.221,0,0,0,.811-1.486,6.757,6.757,0,0,0,0-3.784l-.811-1.622a5.291,5.291,0,0,0-1.351-1.081A4.316,4.316,0,0,0,122,38.973Z" transform="translate(-56.862 -31)" fill="#009992"/>
          <path id="Path_89" data-name="Path 89" d="M127.4,34.878V31.5h2.973v3.378Zm.135,16.081V36.5h2.7V50.959Z" transform="translate(-52.4 -30.824)" fill="#009992"/>
          <path id="Path_90" data-name="Path 90" d="M137.251,49.895a8.713,8.713,0,0,1-2.7-.405,4.983,4.983,0,0,1-1.892-1.081,4.661,4.661,0,0,1-1.216-1.622,10.123,10.123,0,0,1-.541-2.162h2.838a2.546,2.546,0,0,0,.27,1.081,2.424,2.424,0,0,0,.676.946,2.716,2.716,0,0,0,1.081.541,5.04,5.04,0,0,0,1.622.27h.946a3.18,3.18,0,0,0,1.081-.27c.27-.135.676-.27.811-.541a1.227,1.227,0,0,0,.405-.946,1.921,1.921,0,0,0-.27-.811,2.178,2.178,0,0,0-.946-.541c-.135-.135-.405-.135-.676-.27a33443198242654.926,33443198242654.926,0,0,1-1.622-.27c-.27,0-.541-.135-.811-.135-.541-.135-1.081-.27-1.757-.405a8.266,8.266,0,0,1-1.622-.676,3.19,3.19,0,0,1-1.081-1.216,3.381,3.381,0,0,1-.405-1.757,4.112,4.112,0,0,1,1.486-3.243,6.442,6.442,0,0,1,4.189-1.081,6.546,6.546,0,0,1,2.432.405,7.281,7.281,0,0,1,1.757.946,6,6,0,0,1,1.081,1.486,8.74,8.74,0,0,1,.541,1.757h-2.838a1.921,1.921,0,0,0-.27-.811,1.349,1.349,0,0,0-.541-.676,2.018,2.018,0,0,0-.946-.405,4.166,4.166,0,0,0-1.351-.135,4.62,4.62,0,0,0-2.3.405,1.419,1.419,0,0,0-.676,1.216,1.531,1.531,0,0,0,1.216,1.351c.27.135.405.135.676.27.27,0,.541.135.811.135s.541.135.811.135.541.135.811.135c.541.135,1.081.27,1.757.405a4.567,4.567,0,0,1,1.622.811,3.19,3.19,0,0,1,1.081,1.216,3.741,3.741,0,0,1,.405,1.757,4.316,4.316,0,0,1-.405,1.892,2.958,2.958,0,0,1-1.216,1.351,4.738,4.738,0,0,1-1.892.811C139.008,49.759,138.2,49.895,137.251,49.895Z" transform="translate(-51.17 -29.489)" fill="#009992"/>
          <path id="Path_91" data-name="Path 91" d="M143.738,43.684a5.365,5.365,0,0,0,1.486,2.7,4.452,4.452,0,0,0,2.973,1.081,4.141,4.141,0,0,0,2.3-.541,3.851,3.851,0,0,0,1.486-1.757h2.973a7.448,7.448,0,0,1-2.568,3.649,6.983,6.983,0,0,1-4.189,1.216,6.874,6.874,0,0,1-2.973-.541,7.066,7.066,0,0,1-2.3-1.622,7.356,7.356,0,0,1-1.486-2.432,7.272,7.272,0,0,1-.541-2.973,7.272,7.272,0,0,1,.541-2.973,5.655,5.655,0,0,1,1.486-2.432,7.066,7.066,0,0,1,2.3-1.622A7.272,7.272,0,0,1,148.2,34.9a6.874,6.874,0,0,1,2.973.541,7.066,7.066,0,0,1,2.3,1.622,7.356,7.356,0,0,1,1.486,2.432,10.542,10.542,0,0,1,.541,2.973v1.216Zm4.324-6.081a3.807,3.807,0,0,0-2.838.946,5.655,5.655,0,0,0-1.486,2.432h8.514a4.61,4.61,0,0,0-1.486-2.432A3.3,3.3,0,0,0,148.062,37.6Z" transform="translate(-47.657 -29.63)" fill="#009992"/>
        </g>
        <g id="Group_48" data-name="Group 48" transform="translate(65.541 7.297)">
          <path id="Path_92" data-name="Path 92" d="M120.3,21.768V19.2h2.3v2.568Zm0,10.27V22.443h2.162v9.595Z" transform="translate(-120.3 -19.2)" fill="#009992"/>
          <path id="Path_93" data-name="Path 93" d="M129.351,31.265V25.724a2.154,2.154,0,0,0-.541-1.622,1.846,1.846,0,0,0-1.486-.541,1.714,1.714,0,0,0-.811.135,2.337,2.337,0,0,0-1.216,1.081,2,2,0,0,0-.135.946v5.541H123V21.67h2.162v.676a7.543,7.543,0,0,1,1.081-.676,4,4,0,0,1,1.351-.27,5.747,5.747,0,0,1,1.486.27,1.968,1.968,0,0,1,1.216.811,2.8,2.8,0,0,1,.811,1.351,3.709,3.709,0,0,1,.27,1.757V31.13h-2.027Z" transform="translate(-119.351 -18.427)" fill="#009992"/>
        </g>
      </g>
      <g id="Group_50" data-name="Group 50" transform="translate(10.535 10.677)">
        <path id="Path_94" data-name="Path 94" d="M26.6,36.019a19.852,19.852,0,0,0,5,8.784,19.3,19.3,0,0,0,27.3-27.3l-.405-.405h0A12.048,12.048,0,0,1,40.384,32.911a11.834,11.834,0,0,1-2.838-4.595L26.6,36.019" transform="translate(-25.919 -11.831)" fill="#009992" stroke="#575756" stroke-linecap="round" stroke-miterlimit="10" stroke-width="0.37"/>
        <path id="Path_95" data-name="Path 95" d="M34.546,25.9a14.078,14.078,0,0,0,.27,5.811A13.922,13.922,0,0,0,61.3,32.792" transform="translate(-23.19 -8.739)" fill="none" stroke="#575756" stroke-linecap="round" stroke-miterlimit="10" stroke-width="0.37"/>
        <path id="Path_96" data-name="Path 96" d="M34.7,28.481a11.137,11.137,0,0,0,1.757,5.405A13.338,13.338,0,0,0,54.43,38.751a13.015,13.015,0,0,0,5.946-15.135A17.441,17.441,0,0,0,56.186,17.4" transform="translate(-23.073 -11.726)" fill="none" stroke="#575756" stroke-linecap="round" stroke-miterlimit="10" stroke-width="0.37"/>
        <path id="Path_97" data-name="Path 97" d="M37.357,20.13a19.2,19.2,0,0,1,12.568-6.081c-.541-.135-1.216-.405-1.757-.541A19.416,19.416,0,0,0,30.6,22.7,16.639,16.639,0,0,1,37.357,20.13Z" transform="translate(-24.514 -13.104)" fill="#009992" stroke="#575756" stroke-linecap="round" stroke-miterlimit="10" stroke-width="0.37"/>
        <path id="Path_98" data-name="Path 98" d="M48.669,13.47a19.314,19.314,0,0,0-22.3,15.811,19.116,19.116,0,0,0,.676,9.189,3.18,3.18,0,0,1-.27-1.081,14.463,14.463,0,0,1,2.568-11.622,14.118,14.118,0,0,1,2.838-2.838A19.272,19.272,0,0,1,49.75,13.74,2.546,2.546,0,0,0,48.669,13.47Z" transform="translate(-26.096 -13.201)" fill="#009992" stroke="#575756" stroke-linecap="round" stroke-miterlimit="10" stroke-width="0.37"/>
        <path id="Path_99" data-name="Path 99" d="M29.361,23.989A14.074,14.074,0,0,0,26.793,35.61a21.16,21.16,0,0,0,1.622,4.054,16.635,16.635,0,0,1-.27-2.7A16.9,16.9,0,0,1,45.037,20.07a26.326,26.326,0,0,1,3.378.27A14.516,14.516,0,0,0,29.361,23.989Z" transform="translate(-25.977 -11.422)" fill="#94358a"/>
        <path id="Path_100" data-name="Path 100" d="M58.546,43.889a13.536,13.536,0,1,1-9.595-23.108,8.922,8.922,0,0,1,1.892.135A16.126,16.126,0,0,0,44.492,19.7,16.9,16.9,0,0,0,27.6,36.592a18.314,18.314,0,0,0,.27,2.7,22.365,22.365,0,0,0,3.378,4.595A19.249,19.249,0,0,0,58.546,43.889Z" transform="translate(-25.568 -10.917)" fill="#ef7f3c" stroke="#575756" stroke-linecap="round" stroke-miterlimit="10" stroke-width="0.37"/>
      </g>
      <g id="Group_51" data-name="Group 51">
        <path id="Path_101" data-name="Path 101" d="M50.1,18.1" transform="translate(-7.127 -0.803)" fill="none" stroke="#575756" stroke-linecap="round" stroke-miterlimit="10" stroke-width="0.37"/>
        <path id="Path_102" data-name="Path 102" d="M18.3,29.116a30,30,0,0,0,60,0,31.28,31.28,0,0,0-.676-6.216" transform="translate(-18.3 0.884)" fill="none" stroke="#575756" stroke-linecap="round" stroke-miterlimit="10" stroke-width="0.37"/>
        <path id="Path_103" data-name="Path 103" d="M21.146,23.259a25.431,25.431,0,0,0-.946,7.162A27.3,27.3,0,0,0,74.119,36.5c2.3-10.27-2.3-12.027,1.081-17.7" transform="translate(-17.632 -0.557)" fill="none" stroke="#575756" stroke-linecap="round" stroke-miterlimit="10" stroke-width="0.37"/>
        <path id="Path_104" data-name="Path 104" d="M28.011,15.7A24.613,24.613,0,1,0,71.389,31.646a10.228,10.228,0,0,0-.135-2.027" transform="translate(-16.93 -1.646)" fill="none" stroke="#575756" stroke-linecap="round" stroke-miterlimit="10" stroke-width="0.37"/>
        <path id="Path_105" data-name="Path 105" d="M38.119,12.3a21.982,21.982,0,0,0,8.108,42.432A21.642,21.642,0,0,0,65.146,43.786c4.865-8.378.27-10.27,2.432-15.946" transform="translate(-16.227 -2.841)" fill="none" stroke="#575756" stroke-linecap="round" stroke-miterlimit="10" stroke-width="0.37"/>
        <path id="Path_106" data-name="Path 106" d="M58.1,41.268c3.378-10.135-7.973-18.784.541-27.568" transform="translate(-5.264 -2.349)" fill="none" stroke="#575756" stroke-linecap="round" stroke-miterlimit="10" stroke-width="0.37"/>
        <path id="Path_107" data-name="Path 107" d="M22.4,31.176C25.1,10.905,41.995,5.5,41.995,5.5" transform="translate(-16.859 -5.23)" fill="none" stroke="#575756" stroke-linecap="round" stroke-miterlimit="10" stroke-width="0.37"/>
        <path id="Path_108" data-name="Path 108" d="M27.9,20.4c7.838-9.595,6.622-12.7,6.622-12.7" transform="translate(-14.927 -4.457)" fill="none" stroke="#575756" stroke-linecap="round" stroke-miterlimit="10" stroke-width="0.37"/>
        <path id="Path_109" data-name="Path 109" d="M21.333,41.008c-5.946-17.3,5.405-29.73,12.3-33.108" transform="translate(-17.82 -4.386)" fill="none" stroke="#575756" stroke-linecap="round" stroke-miterlimit="10" stroke-width="0.37"/>
        <path id="Path_110" data-name="Path 110" d="M45.3,5.8s2.973,9.73,13.649,17.432" transform="translate(-8.814 -5.124)" fill="none" stroke="#575756" stroke-linecap="round" stroke-miterlimit="10" stroke-width="0.37"/>
        <path id="Path_111" data-name="Path 111" d="M52.424,18.405A8.866,8.866,0,0,1,51.207,8" transform="translate(-7.153 -4.351)" fill="none" stroke="#575756" stroke-linecap="round" stroke-miterlimit="10" stroke-width="0.37"/>
        <path id="Path_112" data-name="Path 112" d="M31.6,14.084S37.276,12.462,42.546,5.3" transform="translate(-13.627 -5.3)" fill="none" stroke="#575756" stroke-linecap="round" stroke-miterlimit="10" stroke-width="0.37"/>
        <path id="Path_113" data-name="Path 113" d="M45.516,5.4s-5.27,5-11.216,6.757" transform="translate(-12.678 -5.265)" fill="none" stroke="#575756" stroke-linecap="round" stroke-miterlimit="10" stroke-width="0.37"/>
        <path id="Path_114" data-name="Path 114" d="M57.923,18.1A10.946,10.946,0,0,0,61.3,27.424" transform="translate(-4.409 -0.803)" fill="none" stroke="#575756" stroke-linecap="round" stroke-miterlimit="10" stroke-width="0.37"/>
        <path id="Path_115" data-name="Path 115" d="M54.765,19.522A5.359,5.359,0,0,1,53.684,12.9" transform="translate(-6.116 -2.63)" fill="none" stroke="#575756" stroke-linecap="round" stroke-miterlimit="10" stroke-width="0.37"/>
      </g>
    </g>
  </g>
</svg>
