<svg xmlns="http://www.w3.org/2000/svg" xmlns:xlink="http://www.w3.org/1999/xlink" width="154.703" height="60" viewBox="0 0 154.703 60">
  <defs>
    <clipPath id="clip-path">
      <rect id="Rectangle_1371" data-name="Rectangle 1371" width="154.702" height="60" fill="none"/>
    </clipPath>
    <clipPath id="clip-path-2">
      <rect id="Rectangle_1370" data-name="Rectangle 1370" width="154.702" height="58.041" fill="none"/>
    </clipPath>
    <clipPath id="clip-path-3">
      <rect id="Rectangle_1341" data-name="Rectangle 1341" width="19.433" height="58.04" fill="none"/>
    </clipPath>
    <clipPath id="clip-path-4">
      <rect id="Rectangle_1342" data-name="Rectangle 1342" width="14.241" height="48.755" fill="none"/>
    </clipPath>
    <clipPath id="clip-path-5">
      <rect id="Rectangle_1343" data-name="Rectangle 1343" width="20.082" height="58.04" fill="none"/>
    </clipPath>
    <clipPath id="clip-path-6">
      <rect id="Rectangle_1344" data-name="Rectangle 1344" width="10.237" height="58.04" fill="none"/>
    </clipPath>
    <clipPath id="clip-path-7">
      <rect id="Rectangle_1345" data-name="Rectangle 1345" width="15.802" height="58.04" fill="none"/>
    </clipPath>
    <clipPath id="clip-path-8">
      <rect id="Rectangle_1346" data-name="Rectangle 1346" width="2.777" height="3.717" fill="none"/>
    </clipPath>
    <clipPath id="clip-path-9">
      <rect id="Rectangle_1347" data-name="Rectangle 1347" width="2.776" height="3.717" fill="none"/>
    </clipPath>
    <clipPath id="clip-path-10">
      <rect id="Rectangle_1348" data-name="Rectangle 1348" width="5.842" height="4.04" fill="none"/>
    </clipPath>
    <clipPath id="clip-path-11">
      <rect id="Rectangle_1349" data-name="Rectangle 1349" width="5.848" height="4.04" fill="none"/>
    </clipPath>
    <clipPath id="clip-path-12">
      <rect id="Rectangle_1350" data-name="Rectangle 1350" width="5.375" height="4.488" fill="none"/>
    </clipPath>
    <clipPath id="clip-path-13">
      <rect id="Rectangle_1351" data-name="Rectangle 1351" width="3.92" height="2.709" fill="none"/>
    </clipPath>
    <clipPath id="clip-path-14">
      <rect id="Rectangle_1352" data-name="Rectangle 1352" width="8.887" height="6.147" fill="none"/>
    </clipPath>
    <clipPath id="clip-path-15">
      <rect id="Rectangle_1353" data-name="Rectangle 1353" width="3.385" height="3.178" fill="none"/>
    </clipPath>
    <clipPath id="clip-path-16">
      <rect id="Rectangle_1354" data-name="Rectangle 1354" width="5.553" height="3.833" fill="none"/>
    </clipPath>
    <clipPath id="clip-path-17">
      <rect id="Rectangle_1355" data-name="Rectangle 1355" width="8.893" height="6.147" fill="none"/>
    </clipPath>
    <clipPath id="clip-path-18">
      <rect id="Rectangle_1356" data-name="Rectangle 1356" width="30.19" height="58.04" fill="none"/>
    </clipPath>
    <clipPath id="clip-path-19">
      <rect id="Rectangle_1357" data-name="Rectangle 1357" width="7.161" height="59.524" fill="none"/>
    </clipPath>
    <clipPath id="clip-path-20">
      <rect id="Rectangle_1358" data-name="Rectangle 1358" width="21.743" height="59.11" fill="none"/>
    </clipPath>
    <clipPath id="clip-path-21">
      <rect id="Rectangle_1359" data-name="Rectangle 1359" width="6.288" height="59.344" fill="none"/>
    </clipPath>
    <clipPath id="clip-path-22">
      <rect id="Rectangle_1360" data-name="Rectangle 1360" width="9.57" height="59.086" fill="none"/>
    </clipPath>
    <clipPath id="clip-path-23">
      <rect id="Rectangle_1361" data-name="Rectangle 1361" width="9.817" height="59.695" fill="none"/>
    </clipPath>
    <clipPath id="clip-path-24">
      <rect id="Rectangle_1362" data-name="Rectangle 1362" width="6.285" height="59.47" fill="none"/>
    </clipPath>
    <clipPath id="clip-path-25">
      <rect id="Rectangle_1363" data-name="Rectangle 1363" width="2.991" height="60" fill="none"/>
    </clipPath>
    <clipPath id="clip-path-26">
      <rect id="Rectangle_1364" data-name="Rectangle 1364" width="5.074" height="6.797" fill="none"/>
    </clipPath>
    <clipPath id="clip-path-27">
      <rect id="Rectangle_1365" data-name="Rectangle 1365" width="4.213" height="3.519" fill="none"/>
    </clipPath>
    <clipPath id="clip-path-28">
      <rect id="Rectangle_1366" data-name="Rectangle 1366" width="5.546" height="3.838" fill="none"/>
    </clipPath>
    <clipPath id="clip-path-29">
      <rect id="Rectangle_1367" data-name="Rectangle 1367" width="8.887" height="6.141" fill="none"/>
    </clipPath>
    <clipPath id="clip-path-30">
      <rect id="Rectangle_1368" data-name="Rectangle 1368" width="2.78" height="3.723" fill="none"/>
    </clipPath>
    <clipPath id="clip-path-31">
      <rect id="Rectangle_1369" data-name="Rectangle 1369" width="3.378" height="3.182" fill="none"/>
    </clipPath>
  </defs>
  <g id="Group_44" data-name="Group 44" transform="translate(508.384 -4932.643)">
    <g id="Group_2294" data-name="Group 2294" transform="translate(-508.384 4932.643)">
      <g id="Group_2293" data-name="Group 2293" transform="translate(0 0)">
        <g id="Group_2292" data-name="Group 2292" clip-path="url(#clip-path)">
          <path id="Path_3108" data-name="Path 3108" d="M105.082,1.965,97.068,60H208.433V1.965Z" transform="translate(-53.731 -1.088)" fill="#4a722d"/>
          <g id="Group_2291" data-name="Group 2291" transform="translate(0 0.877)">
            <g id="Group_2290" data-name="Group 2290" clip-path="url(#clip-path-2)">
              <g id="Group_2205" data-name="Group 2205" transform="translate(11.792 0.001)" style="mix-blend-mode: multiply;isolation: isolate">
                <g id="Group_2204" data-name="Group 2204">
                  <g id="Group_2203" data-name="Group 2203" clip-path="url(#clip-path-3)">
                    <path id="Path_3109" data-name="Path 3109" d="M34.529,1.965,45.845,60H30.994L26.412,1.965Z" transform="translate(-26.412 -1.965)" fill="#4a722d" fill-rule="evenodd"/>
                  </g>
                </g>
              </g>
              <g id="Group_2208" data-name="Group 2208" transform="translate(0 9.286)" style="mix-blend-mode: multiply;isolation: isolate">
                <g id="Group_2207" data-name="Group 2207">
                  <g id="Group_2206" data-name="Group 2206" clip-path="url(#clip-path-4)">
                    <path id="Path_3110" data-name="Path 3110" d="M12.524,22.763,0,71.518H8.154L14.24,44.431Z" transform="translate(0 -22.763)" fill="#98ba47" fill-rule="evenodd"/>
                  </g>
                </g>
              </g>
              <g id="Group_2211" data-name="Group 2211" transform="translate(13.18 0.001)" style="mix-blend-mode: multiply;isolation: isolate">
                <g id="Group_2210" data-name="Group 2210">
                  <g id="Group_2209" data-name="Group 2209" clip-path="url(#clip-path-5)">
                    <path id="Path_3111" data-name="Path 3111" d="M40.621,1.965,29.521,60h8.463L49.6,1.965Z" transform="translate(-29.521 -1.965)" fill="#78ac2f" fill-rule="evenodd"/>
                  </g>
                </g>
              </g>
              <g id="Group_2214" data-name="Group 2214" transform="translate(31.919 0.001)" style="mix-blend-mode: multiply;isolation: isolate">
                <g id="Group_2213" data-name="Group 2213">
                  <g id="Group_2212" data-name="Group 2212" clip-path="url(#clip-path-6)">
                    <path id="Path_3112" data-name="Path 3112" d="M72.212,1.965l-.72,58.041h7.075L81.729,1.965Z" transform="translate(-71.492 -1.965)" fill="#52a037" fill-rule="evenodd"/>
                  </g>
                </g>
              </g>
              <g id="Group_2217" data-name="Group 2217" transform="translate(40.124 0.001)" style="mix-blend-mode: multiply;isolation: isolate">
                <g id="Group_2216" data-name="Group 2216">
                  <g id="Group_2215" data-name="Group 2215" clip-path="url(#clip-path-7)">
                    <path id="Path_3113" data-name="Path 3113" d="M95.9,1.965l9.774,58.041H94.454L89.872,1.965Z" transform="translate(-89.872 -1.965)" fill="#329637" fill-rule="evenodd"/>
                  </g>
                </g>
              </g>
              <g id="Group_2220" data-name="Group 2220" transform="translate(3.76 26.579)" style="mix-blend-mode: multiply;isolation: isolate">
                <g id="Group_2219" data-name="Group 2219">
                  <g id="Group_2218" data-name="Group 2218" clip-path="url(#clip-path-8)">
                    <path id="Path_3114" data-name="Path 3114" d="M11.058,65.211A2.921,2.921,0,0,0,8.571,61.5a2.918,2.918,0,0,0,2.487,3.714" transform="translate(-8.43 -61.497)" fill="#98ba47" fill-rule="evenodd"/>
                  </g>
                </g>
              </g>
              <g id="Group_2223" data-name="Group 2223" transform="translate(24.864 8.45)" style="mix-blend-mode: multiply;isolation: isolate">
                <g id="Group_2222" data-name="Group 2222">
                  <g id="Group_2221" data-name="Group 2221" clip-path="url(#clip-path-9)">
                    <path id="Path_3115" data-name="Path 3115" d="M58.326,24.605a2.922,2.922,0,0,0-2.487-3.714,2.921,2.921,0,0,0,2.487,3.714" transform="translate(-55.699 -20.891)" fill="#98ba47" fill-rule="evenodd"/>
                  </g>
                </g>
              </g>
              <g id="Group_2226" data-name="Group 2226" transform="translate(24.207 18.306)" style="mix-blend-mode: multiply;isolation: isolate">
                <g id="Group_2225" data-name="Group 2225">
                  <g id="Group_2224" data-name="Group 2224" clip-path="url(#clip-path-10)">
                    <path id="Path_3116" data-name="Path 3116" d="M60.061,43.257c-1.394-.816-5.308,0-5.842,3.457a4.437,4.437,0,0,0,5.842-3.457" transform="translate(-54.219 -42.965)" fill="#98ba47" fill-rule="evenodd"/>
                  </g>
                </g>
              </g>
              <g id="Group_2229" data-name="Group 2229" transform="translate(15.468 46.196)" style="mix-blend-mode: multiply;isolation: isolate">
                <g id="Group_2228" data-name="Group 2228">
                  <g id="Group_2227" data-name="Group 2227" clip-path="url(#clip-path-11)">
                    <path id="Path_3117" data-name="Path 3117" d="M40.493,109.182c-1.4.816-5.308,0-5.848-3.457a4.44,4.44,0,0,1,5.848,3.457" transform="translate(-34.645 -105.433)" fill="#98ba47" fill-rule="evenodd"/>
                  </g>
                </g>
              </g>
              <g id="Group_2232" data-name="Group 2232" transform="translate(39.142 38.524)" style="mix-blend-mode: multiply;isolation: isolate">
                <g id="Group_2231" data-name="Group 2231">
                  <g id="Group_2230" data-name="Group 2230" clip-path="url(#clip-path-12)">
                    <path id="Path_3118" data-name="Path 3118" d="M93.022,88.38c.27,1.61-1.9,4.994-5.353,4.255a4.469,4.469,0,0,1,5.353-4.255" transform="translate(-87.669 -88.25)" fill="#98ba47" fill-rule="evenodd"/>
                  </g>
                </g>
              </g>
              <g id="Group_2235" data-name="Group 2235" transform="translate(34.026 32.273)" style="mix-blend-mode: multiply;isolation: isolate">
                <g id="Group_2234" data-name="Group 2234">
                  <g id="Group_2233" data-name="Group 2233" clip-path="url(#clip-path-13)">
                    <path id="Path_3119" data-name="Path 3119" d="M76.213,74.457a2.974,2.974,0,0,1,3.92,2.314,2.97,2.97,0,0,1-3.92-2.314" transform="translate(-76.213 -74.258)" fill="#98ba47" fill-rule="evenodd"/>
                  </g>
                </g>
              </g>
              <g id="Group_2238" data-name="Group 2238" transform="translate(48.485 17.546)" style="mix-blend-mode: multiply;isolation: isolate">
                <g id="Group_2237" data-name="Group 2237">
                  <g id="Group_2236" data-name="Group 2236" clip-path="url(#clip-path-14)">
                    <path id="Path_3120" data-name="Path 3120" d="M117.485,41.712c-2.127-1.247-8.071-.007-8.887,5.257,5.173,1.946,8.907-3.014,8.887-5.257" transform="translate(-108.598 -41.265)" fill="#98ba47" fill-rule="evenodd"/>
                  </g>
                </g>
              </g>
              <g id="Group_2241" data-name="Group 2241" transform="translate(45.594 13.946)" style="mix-blend-mode: multiply;isolation: isolate">
                <g id="Group_2240" data-name="Group 2240">
                  <g id="Group_2239" data-name="Group 2239" clip-path="url(#clip-path-15)">
                    <path id="Path_3121" data-name="Path 3121" d="M102.154,33.275a2.978,2.978,0,0,1,3.354,3.08,2.975,2.975,0,0,1-3.354-3.079" transform="translate(-102.13 -33.212)" fill="#98ba47" fill-rule="evenodd"/>
                  </g>
                </g>
              </g>
              <g id="Group_2244" data-name="Group 2244" transform="translate(2.14 15.06)" style="mix-blend-mode: multiply;isolation: isolate">
                <g id="Group_2243" data-name="Group 2243">
                  <g id="Group_2242" data-name="Group 2242" clip-path="url(#clip-path-16)">
                    <path id="Path_3122" data-name="Path 3122" d="M4.793,35.975c1.331-.777,5.044-.007,5.553,3.277a4.219,4.219,0,0,1-5.553-3.277" transform="translate(-4.793 -35.696)" fill="#98ba47" fill-rule="evenodd"/>
                  </g>
                </g>
              </g>
              <g id="Group_2247" data-name="Group 2247" transform="translate(53.877 40.192)" style="mix-blend-mode: multiply;isolation: isolate">
                <g id="Group_2246" data-name="Group 2246">
                  <g id="Group_2245" data-name="Group 2245" clip-path="url(#clip-path-17)">
                    <path id="Path_3123" data-name="Path 3123" d="M129.568,92.434c-2.127-1.247-8.078-.007-8.893,5.256,5.179,1.947,8.913-3.014,8.893-5.256" transform="translate(-120.674 -91.987)" fill="#98ba47" fill-rule="evenodd"/>
                  </g>
                </g>
              </g>
              <g id="Group_2250" data-name="Group 2250" transform="translate(124.513 0.001)" style="mix-blend-mode: multiply;isolation: isolate">
                <g id="Group_2249" data-name="Group 2249">
                  <g id="Group_2248" data-name="Group 2248" clip-path="url(#clip-path-18)">
                    <path id="Path_3124" data-name="Path 3124" d="M294.167,1.965l14.908,58.041H300.42L278.886,1.965Z" transform="translate(-278.886 -1.965)" fill="#98ba47" fill-rule="evenodd"/>
                  </g>
                </g>
              </g>
              <g id="Group_2253" data-name="Group 2253" transform="translate(45.393 -0.547)" style="mix-blend-mode: multiply;isolation: isolate">
                <g id="Group_2252" data-name="Group 2252">
                  <g id="Group_2251" data-name="Group 2251" clip-path="url(#clip-path-19)">
                    <path id="Path_3125" data-name="Path 3125" d="M102.2.74l6.633,59.381-.524.146L101.672.852Z" transform="translate(-101.673 -0.74)" fill="#52a037"/>
                  </g>
                </g>
              </g>
              <g id="Group_2256" data-name="Group 2256" transform="translate(10.64 -0.435)" style="mix-blend-mode: multiply;isolation: isolate">
                <g id="Group_2255" data-name="Group 2255">
                  <g id="Group_2254" data-name="Group 2254" clip-path="url(#clip-path-20)">
                    <path id="Path_3126" data-name="Path 3126" d="M45.574.989,24.463,59.93l-.633.169L45,.989Z" transform="translate(-23.83 -0.989)" fill="#4a722d"/>
                  </g>
                </g>
              </g>
              <g id="Group_2259" data-name="Group 2259" transform="translate(3.809 -0.839)" style="mix-blend-mode: multiply;isolation: isolate">
                <g id="Group_2258" data-name="Group 2258">
                  <g id="Group_2257" data-name="Group 2257" clip-path="url(#clip-path-21)">
                    <path id="Path_3127" data-name="Path 3127" d="M14.817.085,9.069,59.432H8.532L14.257.416Z" transform="translate(-8.53 -0.085)" fill="#98ba47"/>
                  </g>
                </g>
              </g>
              <g id="Group_2262" data-name="Group 2262" transform="translate(32.459 -0.317)" style="mix-blend-mode: multiply;isolation: isolate">
                <g id="Group_2261" data-name="Group 2261">
                  <g id="Group_2260" data-name="Group 2260" clip-path="url(#clip-path-22)">
                    <path id="Path_3128" data-name="Path 3128" d="M73.237,1.254,82.271,60l-.488.34L72.7,1.324Z" transform="translate(-72.702 -1.254)" fill="#52a037"/>
                  </g>
                </g>
              </g>
              <g id="Group_2265" data-name="Group 2265" transform="translate(135.152 -0.648)" style="mix-blend-mode: multiply;isolation: isolate">
                <g id="Group_2264" data-name="Group 2264">
                  <g id="Group_2263" data-name="Group 2263" clip-path="url(#clip-path-23)">
                    <path id="Path_3129" data-name="Path 3129" d="M303.219.513l9.313,59.357-.494.338L302.715.738Z" transform="translate(-302.716 -0.513)" fill="#52a037"/>
                  </g>
                </g>
              </g>
              <g id="Group_2268" data-name="Group 2268" transform="translate(144.049 -0.422)" style="mix-blend-mode: multiply;isolation: isolate">
                <g id="Group_2267" data-name="Group 2267">
                  <g id="Group_2266" data-name="Group 2266" clip-path="url(#clip-path-24)">
                    <path id="Path_3130" data-name="Path 3130" d="M323.176,1.019l5.753,59.391-.524.077L322.643,1.081Z" transform="translate(-322.644 -1.019)" fill="#98ba47"/>
                  </g>
                </g>
              </g>
              <g id="Group_2271" data-name="Group 2271" transform="translate(129.686 -0.877)" style="mix-blend-mode: multiply;isolation: isolate">
                <g id="Group_2270" data-name="Group 2270">
                  <g id="Group_2269" data-name="Group 2269" clip-path="url(#clip-path-25)">
                    <path id="Path_3131" data-name="Path 3131" d="M293.462,0l-2.453,59.83-.541.17L292.9.455Z" transform="translate(-290.472)" fill="#52a037"/>
                  </g>
                </g>
              </g>
              <path id="Path_3132" data-name="Path 3132" d="M159.02,37H162.3c1.664,0,2.635.655,2.635,1.934,0,1.594-1.22,2.07-2.635,2.056H159.02Zm-.951,4.807H162.3c3.252,0,3.586-1.9,3.586-2.846a2.343,2.343,0,0,0-2.114-2.436v-.031a2.271,2.271,0,0,0,1.735-2.243c0-1.864-1.529-2.449-3.207-2.449h-4.235Zm.951-9.2H162.3c1.484,0,2.256.63,2.256,1.877,0,.944-.733,1.7-2.256,1.7H159.02Zm8.4,9.2h6.555v-.816h-5.6V31.8h-.951Zm7.589,0h.957V31.8h-.957Zm2.538-3.3c-.115,2.442,1.626,3.5,3.99,3.5,3.547,0,3.833-2.173,3.833-2.859,0-1.639-1.182-2.255-2.6-2.629l-2.436-.6c-.816-.2-1.516-.591-1.516-1.529,0-1.484,1.208-1.986,2.513-1.986a2.459,2.459,0,0,1,2.731,2.294h.951c.012-2.044-1.723-3.11-3.7-3.11-2.814,0-3.444,1.84-3.444,2.814,0,1.555,1.079,2.12,2.255,2.409l2.229.547c.925.225,2.056.675,2.056,1.813,0,1.452-1.594,2.03-2.648,2.03-1.819,0-3.3-.629-3.264-2.692Zm8.83,0c-.116,2.442,1.625,3.5,3.99,3.5,3.547,0,3.824-2.173,3.824-2.859,0-1.639-1.176-2.255-2.59-2.629l-2.442-.6c-.81-.2-1.51-.591-1.51-1.529,0-1.484,1.208-1.986,2.506-1.986a2.45,2.45,0,0,1,2.731,2.294h.957c.013-2.044-1.723-3.11-3.7-3.11-2.814,0-3.444,1.84-3.444,2.814,0,1.555,1.08,2.12,2.256,2.409l2.223.547c.925.225,2.063.675,2.063,1.813,0,1.452-1.6,2.03-2.648,2.03-1.825,0-3.309-.629-3.264-2.692Z" transform="translate(-87.496 -18.36)" fill="#fff" fill-rule="evenodd"/>
              <path id="Path_3133" data-name="Path 3133" d="M158.067,72.077h.951V62.071h-.951Zm3.027,0h.951V63.613h.032l5.826,8.463h1.066V62.071h-.957v8.463h-.025l-5.826-8.463h-1.066Zm12.7-9.189h3.489v9.189h.951V62.887h3.49v-.816h-7.93Zm8.868,9.189h.951V67.229h5.944v4.846h.951v-10h-.951v4.344h-5.944V62.071h-.951Zm9.864,0H199.5v-.81h-6.028V67.315h5.578V66.5h-5.578V62.887h5.957v-.816h-6.908Z" transform="translate(-87.495 -35.235)" fill="#fff" fill-rule="evenodd"/>
              <path id="Path_3134" data-name="Path 3134" d="M160.843,101.839h1.034l2.526-8.952h.026l2.537,8.952h1.01l2.76-10.006h-.951l-2.281,8.759h-.033l-2.452-8.758h-1.2l-2.436,8.757h-.026l-2.274-8.757h-1.022Zm10.411-5.006c0,2.738,1.568,5.218,4.724,5.218,3.136,0,4.7-2.481,4.7-5.218s-1.568-5.213-4.7-5.213c-3.155,0-4.724,2.48-4.724,5.213m.951,0c0-2.185,1.124-4.4,3.772-4.4s3.753,2.21,3.753,4.4-1.118,4.4-3.753,4.4-3.772-2.21-3.772-4.4m9.433,0c0,2.738,1.568,5.218,4.717,5.218s4.71-2.481,4.71-5.218-1.568-5.213-4.71-5.213-4.717,2.48-4.717,5.213m.951,0c0-2.185,1.118-4.4,3.766-4.4s3.756,2.21,3.756,4.4-1.125,4.4-3.756,4.4c-2.648,0-3.766-2.21-3.766-4.4m10.912-4.19h2.037c2.873-.013,4.12,1.207,4.12,4.19s-1.247,4.209-4.12,4.189H193.5Zm-.951,9.2h3.464c3.014-.071,4.594-1.723,4.594-5.006s-1.578-4.933-4.594-5H192.55Zm9.093-3.3c-.11,2.442,1.625,3.509,4,3.509,3.541,0,3.824-2.172,3.824-2.86,0-1.638-1.176-2.255-2.59-2.635l-2.442-.6c-.81-.193-1.51-.591-1.51-1.533,0-1.484,1.2-1.986,2.507-1.986a2.463,2.463,0,0,1,2.731,2.294h.951c.019-2.043-1.722-3.11-3.7-3.11-2.814,0-3.45,1.84-3.45,2.821,0,1.555,1.08,2.114,2.256,2.409l2.229.547c.926.218,2.063.668,2.063,1.806,0,1.457-1.6,2.03-2.648,2.03-1.825,0-3.309-.629-3.264-2.692Z" transform="translate(-87.495 -51.592)" fill="#fff" fill-rule="evenodd"/>
              <path id="Path_3135" data-name="Path 3135" d="M158.067,18.158h.289V15.6h.007l1.767,2.564h.321V15.128h-.289v2.564h-.007l-1.767-2.564h-.321Zm2.994,0h2.114v-.251H161.35V16.715h1.687v-.243H161.35v-1.1h1.8v-.244h-2.088Zm2.365-1c-.038.739.488,1.066,1.209,1.066,1.073,0,1.156-.662,1.156-.867,0-.5-.353-.682-.784-.8l-.739-.186c-.245-.057-.46-.172-.46-.46,0-.449.366-.6.759-.6a.746.746,0,0,1,.829.694h.289c0-.623-.527-.944-1.125-.944-.849,0-1.041.559-1.041.855,0,.469.327.642.682.733l.675.161c.283.071.624.205.624.553,0,.437-.482.613-.8.613-.547,0-1-.186-.984-.816Zm2.5-1.787h1.054v2.789h.289V15.371h1.053v-.244h-2.4Zm3.855,2.789h.289V15.536h.007l1.041,2.622h.27l1.034-2.622h.012v2.622h.289v-3.03H172.3l-1.047,2.66-1.047-2.66h-.425Zm3.207,0h.315l.36-.944h1.38l.366.944h.314l-1.188-3.033h-.321Zm1.375-2.744.585,1.555h-1.2ZM176,18.158h.283V17.119l.585-.537,1.26,1.581h.373l-1.414-1.78,1.349-1.253h-.383l-1.767,1.632V15.128H176Zm2.75,0h2.108v-.251h-1.825V16.715h1.687v-.243h-1.687v-1.1h1.805v-.244h-2.089Zm2.513,0h.289V16.809h1.092c.553-.019.585.449.613.874a1.2,1.2,0,0,0,.077.475h.321a1.713,1.713,0,0,1-.142-.777c-.019-.36-.135-.636-.527-.69v-.006a.731.731,0,0,0,.585-.771c0-.547-.418-.79-.92-.79h-1.388Zm.289-2.789h1.079a.576.576,0,0,1,.655.6.6.6,0,0,1-.655.592h-1.079Zm2.39,1.787c-.032.739.494,1.066,1.208,1.066,1.073,0,1.157-.662,1.157-.867,0-.5-.353-.682-.784-.8l-.739-.186c-.245-.057-.46-.172-.46-.46,0-.449.366-.6.758-.6a.745.745,0,0,1,.829.694h.289c.007-.623-.521-.944-1.118-.944-.855,0-1.047.559-1.047.855,0,.469.327.642.682.733l.675.161c.283.071.63.205.63.553,0,.437-.488.613-.8.613-.552,0-1-.186-.99-.816Z" transform="translate(-87.495 -9.215)" fill="#191618" fill-rule="evenodd"/>
              <g id="Group_2274" data-name="Group 2274" transform="translate(133.602 11.862)" style="mix-blend-mode: multiply;isolation: isolate">
                <g id="Group_2273" data-name="Group 2273">
                  <g id="Group_2272" data-name="Group 2272" clip-path="url(#clip-path-26)">
                    <path id="Path_3136" data-name="Path 3136" d="M304.047,35.332c.887-1.735-.353-6.381-4.55-6.793-1.312,4.184,2.776,6.909,4.55,6.793" transform="translate(-299.243 -28.535)" fill="#98ba47" fill-rule="evenodd"/>
                  </g>
                </g>
              </g>
              <g id="Group_2277" data-name="Group 2277" transform="translate(141.252 31.675)" style="mix-blend-mode: multiply;isolation: isolate">
                <g id="Group_2276" data-name="Group 2276">
                  <g id="Group_2275" data-name="Group 2275" clip-path="url(#clip-path-27)">
                    <path id="Path_3137" data-name="Path 3137" d="M320.576,73.022a3.508,3.508,0,0,1-4.2,3.336,3.5,3.5,0,0,1,4.2-3.336" transform="translate(-316.38 -72.92)" fill="#98ba47" fill-rule="evenodd"/>
                  </g>
                </g>
              </g>
              <g id="Group_2280" data-name="Group 2280" transform="translate(147.029 25.06)" style="mix-blend-mode: multiply;isolation: isolate">
                <g id="Group_2279" data-name="Group 2279">
                  <g id="Group_2278" data-name="Group 2278" clip-path="url(#clip-path-28)">
                    <path id="Path_3138" data-name="Path 3138" d="M334.866,58.373c-1.331-.778-5.038,0-5.546,3.283a4.214,4.214,0,0,0,5.546-3.283" transform="translate(-329.32 -58.095)" fill="#98ba47" fill-rule="evenodd"/>
                  </g>
                </g>
              </g>
              <g id="Group_2283" data-name="Group 2283" transform="translate(133.638 40.186)" style="mix-blend-mode: multiply;isolation: isolate">
                <g id="Group_2282" data-name="Group 2282">
                  <g id="Group_2281" data-name="Group 2281" clip-path="url(#clip-path-29)">
                    <path id="Path_3139" data-name="Path 3139" d="M299.324,92.42c2.127-1.247,8.078-.007,8.888,5.25-5.174,1.947-8.907-3.014-8.888-5.25" transform="translate(-299.324 -91.972)" fill="#98ba47" fill-rule="evenodd"/>
                  </g>
                </g>
              </g>
              <g id="Group_2286" data-name="Group 2286" transform="translate(139.497 19.837)" style="mix-blend-mode: multiply;isolation: isolate">
                <g id="Group_2285" data-name="Group 2285">
                  <g id="Group_2284" data-name="Group 2284" clip-path="url(#clip-path-30)">
                    <path id="Path_3140" data-name="Path 3140" d="M312.608,50.118A2.928,2.928,0,0,1,315.1,46.4a2.931,2.931,0,0,1-2.493,3.721" transform="translate(-312.459 -46.397)" fill="#98ba47" fill-rule="evenodd"/>
                  </g>
                </g>
              </g>
              <g id="Group_2289" data-name="Group 2289" transform="translate(128.125 30)" style="mix-blend-mode: multiply;isolation: isolate">
                <g id="Group_2288" data-name="Group 2288">
                  <g id="Group_2287" data-name="Group 2287" clip-path="url(#clip-path-31)">
                    <path id="Path_3141" data-name="Path 3141" d="M287.008,69.232a2.974,2.974,0,0,1,3.348,3.085,2.977,2.977,0,0,1-3.348-3.085" transform="translate(-286.983 -69.17)" fill="#98ba47" fill-rule="evenodd"/>
                  </g>
                </g>
              </g>
            </g>
          </g>
        </g>
      </g>
    </g>
  </g>
</svg>
