<svg xmlns="http://www.w3.org/2000/svg" width="143.532" height="60" viewBox="0 0 143.532 60">
  <g id="naturesnest" transform="translate(-22.09 -1.2)">
    <g id="Group_45" data-name="Group 45" transform="translate(22.09 1.2)">
      <path id="Path_71" data-name="Path 71" d="M80.88,43.48v-.54h.5v.54ZM78.56,42a2.683,2.683,0,0,0,.12.87.468.468,0,0,0,.49.34c.37,0,.56-.4.56-1.2a3.3,3.3,0,0,0-.11-.9.456.456,0,0,0-.46-.36.472.472,0,0,0-.48.35A2.883,2.883,0,0,0,78.56,42Zm-.42,2.5V40.48h.41v.35a.777.777,0,0,1,1.38-.02,2.026,2.026,0,0,1,.24,1.04,5.967,5.967,0,0,1-.05.73,1.493,1.493,0,0,1-.26.67.709.709,0,0,1-.64.31.637.637,0,0,1-.36-.08,2.336,2.336,0,0,1-.29-.31V44.5h-.43Zm-1.22-2.64c-.13.07-.29.15-.47.23a.812.812,0,0,0-.37.25.659.659,0,0,0-.09.39c-.01.31.12.47.39.49a.617.617,0,0,0,.38-.16.528.528,0,0,0,.17-.4v-.8Zm-1.39.89a1.02,1.02,0,0,1,.12-.55.763.763,0,0,1,.37-.28l.64-.26c.04-.02.09-.03.13-.05a.3.3,0,0,0,.11-.07.15.15,0,0,0,.04-.11v-.31a.354.354,0,0,0-.1-.26.461.461,0,0,0-.34-.1.455.455,0,0,0-.37.12.689.689,0,0,0-.09.41h-.39c-.01-.59.27-.89.85-.89.37,0,.6.08.7.24a1.237,1.237,0,0,1,.15.64v1.61a.564.564,0,0,0,.03.23.144.144,0,0,0,.11.07.412.412,0,0,1,.12-.01v.31c-.13.01-.21.02-.25.02a.352.352,0,0,1-.29-.1.572.572,0,0,1-.1-.34.755.755,0,0,1-.72.5.727.727,0,0,1-.57-.24A1.239,1.239,0,0,1,75.53,42.75Zm-.98.73V39.42h.42v4.06Zm-3.89-2.27a.816.816,0,0,1,.1-.42.678.678,0,0,1,.3-.28,1.045,1.045,0,0,1,.49-.1.8.8,0,0,1,.92.89h-.42a.55.55,0,0,0-.1-.4.474.474,0,0,0-.36-.12c-.31,0-.47.13-.49.39a.581.581,0,0,0,.05.29.493.493,0,0,0,.18.17c.08.04.24.11.47.21a1.665,1.665,0,0,1,.59.34.618.618,0,0,1,.18.46.878.878,0,0,1-.28.71,1.039,1.039,0,0,1-.73.24.846.846,0,0,1-.73-.28,1.147,1.147,0,0,1-.19-.67h.41a.736.736,0,0,0,.11.43.466.466,0,0,0,.4.15.656.656,0,0,0,.42-.12.466.466,0,0,0,.15-.33A.438.438,0,0,0,72,42.4a1.977,1.977,0,0,0-.52-.24,2.818,2.818,0,0,1-.44-.18.767.767,0,0,1-.28-.26A1.25,1.25,0,0,1,70.66,41.21Zm-1.27,1.67V40.83h-.41v-.36h.41v-.81h.42v.81h.51v.36h-.51v2.09a.208.208,0,0,0,.04.15.228.228,0,0,0,.17.05h.28v.36h-.46a.562.562,0,0,1-.3-.06.291.291,0,0,1-.12-.18A1.1,1.1,0,0,1,69.39,42.88Zm-1.27-2.9v-.54h.41v.54Zm0,3.5V40.47h.41v3.01Zm-4.06,0V40.47h.43v.34c.01-.05.09-.13.25-.25a.731.731,0,0,1,.46-.17.818.818,0,0,1,.6.2.865.865,0,0,1,.2.63v2.26h-.43V41.43a1.286,1.286,0,0,0-.08-.51.348.348,0,0,0-.35-.17.567.567,0,0,0-.45.17.679.679,0,0,0-.19.49v2.07h-.44Zm-1.2-3.5v-.54h.41v.54Zm0,3.5V40.47h.41v3.01Zm-3.89-2.27a.816.816,0,0,1,.1-.42.678.678,0,0,1,.3-.28,1.045,1.045,0,0,1,.49-.1.8.8,0,0,1,.92.89h-.42a.55.55,0,0,0-.1-.4.474.474,0,0,0-.36-.12c-.31,0-.47.13-.49.39a.581.581,0,0,0,.05.29.493.493,0,0,0,.18.17c.08.04.24.11.47.21a1.665,1.665,0,0,1,.59.34.618.618,0,0,1,.18.46.878.878,0,0,1-.28.71,1.039,1.039,0,0,1-.73.24.846.846,0,0,1-.73-.28,1.147,1.147,0,0,1-.19-.67h.41a.736.736,0,0,0,.11.43.466.466,0,0,0,.4.15.656.656,0,0,0,.42-.12.466.466,0,0,0,.15-.33.438.438,0,0,0-.13-.37,1.977,1.977,0,0,0-.52-.24,2.818,2.818,0,0,1-.44-.18.767.767,0,0,1-.28-.26A1.25,1.25,0,0,1,58.97,41.21Zm-2.26.83a1.951,1.951,0,0,0,.15.89.47.47,0,0,0,.44.27c.43,0,.63-.4.62-1.19a3.416,3.416,0,0,0-.12-.92.485.485,0,0,0-.52-.33C56.9,40.76,56.71,41.19,56.71,42.04Zm-.42,0a3,3,0,0,1,.06-.72,1.418,1.418,0,0,1,.28-.65.742.742,0,0,1,.62-.27.571.571,0,0,1,.32.09,1.545,1.545,0,0,1,.24.19c.07.07.1.1.1.09v-.29h.42v2.51a2.539,2.539,0,0,1-.19,1.09.874.874,0,0,1-.86.42.933.933,0,0,1-.63-.2.772.772,0,0,1-.26-.53h.42a.327.327,0,0,0,.13.25.5.5,0,0,0,.35.12c.41,0,.62-.29.62-.86v-.16a.775.775,0,0,1-.66.45.742.742,0,0,1-.75-.47A2.539,2.539,0,0,1,56.29,42.04Zm-2.57,1.44V40.47h.43v.34c.01-.05.09-.13.25-.25a.731.731,0,0,1,.46-.17.818.818,0,0,1,.6.2.865.865,0,0,1,.2.63v2.26h-.43V41.43a1.286,1.286,0,0,0-.08-.51.348.348,0,0,0-.35-.17.567.567,0,0,0-.45.17.679.679,0,0,0-.19.49v2.07h-.44Zm-1.2-3.5v-.54h.41v.54Zm0,3.5V40.47h.41v3.01Zm-1.21,0V39.42h.42v4.06Zm-1.42-.6V40.83h-.41v-.36h.41v-.81h.42v.81h.51v.36h-.51v2.09a.208.208,0,0,0,.04.15.228.228,0,0,0,.17.05h.28v.36h-.46a.562.562,0,0,1-.3-.06.291.291,0,0,1-.12-.18A1.483,1.483,0,0,1,49.89,42.88Zm-2.61-1.67a.816.816,0,0,1,.1-.42.678.678,0,0,1,.3-.28,1.045,1.045,0,0,1,.49-.1.8.8,0,0,1,.92.89h-.42a.55.55,0,0,0-.1-.4.474.474,0,0,0-.36-.12c-.31,0-.47.13-.49.39a.581.581,0,0,0,.05.29.493.493,0,0,0,.18.17c.08.04.24.11.47.21a1.665,1.665,0,0,1,.59.34.618.618,0,0,1,.18.46.878.878,0,0,1-.28.71,1.039,1.039,0,0,1-.73.24.846.846,0,0,1-.73-.28,1.147,1.147,0,0,1-.19-.67h.41a.736.736,0,0,0,.11.43.454.454,0,0,0,.4.15.656.656,0,0,0,.42-.12.466.466,0,0,0,.15-.33.438.438,0,0,0-.13-.37,1.977,1.977,0,0,0-.52-.24,2.818,2.818,0,0,1-.44-.18.767.767,0,0,1-.28-.26A1.1,1.1,0,0,1,47.28,41.21Zm-.95.46a2.044,2.044,0,0,0-.09-.67.363.363,0,0,0-.38-.25.429.429,0,0,0-.43.27,1.437,1.437,0,0,0-.11.64h1.01Zm-1.46.35a3.1,3.1,0,0,1,.19-1.1.894.894,0,0,1,1.53-.16,2.162,2.162,0,0,1,.18.96v.3H45.31a.757.757,0,0,1-.01.15,2.409,2.409,0,0,0,.11.74.412.412,0,0,0,.42.29c.22,0,.37-.07.43-.21a1.293,1.293,0,0,0,.09-.51h.4a1.026,1.026,0,0,1-.3.86,1.041,1.041,0,0,1-.63.23C45.19,43.57,44.87,43.05,44.87,42.02Zm-2.54,1.46V40.47h.43v.34c.01-.05.09-.13.25-.25a.731.731,0,0,1,.46-.17.818.818,0,0,1,.6.2.865.865,0,0,1,.2.63v2.26h-.43V41.43a1.286,1.286,0,0,0-.08-.51.348.348,0,0,0-.35-.17.567.567,0,0,0-.45.17.679.679,0,0,0-.19.49v2.07h-.44Zm-3.72-1.53a2.8,2.8,0,0,0,.12.9.513.513,0,0,0,.54.35.473.473,0,0,0,.5-.35,3,3,0,0,0,.11-.86,2.816,2.816,0,0,0-.12-.89.492.492,0,0,0-.51-.35C38.82,40.75,38.61,41.15,38.61,41.95Zm-.44-.02q0-1.53,1.05-1.53a.922.922,0,0,1,.84.38,2.1,2.1,0,0,1,.25,1.16c0,1.07-.35,1.61-1.04,1.62a.916.916,0,0,1-.85-.45A2.407,2.407,0,0,1,38.17,41.93Zm-3.01,1.55-.77-3.01h.44l.55,2.65.49-2.65h.44l.51,2.65.53-2.65h.44l-.74,3.01H36.6l-.52-2.64-.47,2.64Zm-1.9-.6V40.83h-.41v-.36h.41v-.81h.42v.81h.51v.36h-.51v2.09a.208.208,0,0,0,.04.15.228.228,0,0,0,.17.05h.28v.36H33.7a.562.562,0,0,1-.3-.06.291.291,0,0,1-.12-.18A2.674,2.674,0,0,1,33.26,42.88Zm-4.12.59V39.42h.43v1.37a.688.688,0,0,1,.32-.28,1,1,0,0,1,.47-.12.678.678,0,0,1,.5.19.854.854,0,0,1,.2.62v2.27h-.43V41.39a.97.97,0,0,0-.09-.48.339.339,0,0,0-.33-.16.611.611,0,0,0-.45.18.69.69,0,0,0-.18.51v2.03h-.44Zm-1.43-.59V40.83H27.3v-.36h.41v-.81h.42v.81h.51v.36h-.51v2.09a.208.208,0,0,0,.04.15.228.228,0,0,0,.17.05h.28v.36h-.46a.562.562,0,0,1-.3-.06.291.291,0,0,1-.12-.18A1.482,1.482,0,0,1,27.71,42.88Zm-1.26-2.9v-.54h.41v.54Zm0,3.5V40.47h.41v3.01Zm-3.14,0-.77-3.01h.44l.55,2.65.49-2.65h.44l.51,2.65.53-2.65h.44l-.74,3.01h-.45l-.52-2.64-.47,2.64Z" transform="translate(-22.09 4.755)" fill="#fff" fill-rule="evenodd"/>
      <path id="Path_72" data-name="Path 72" d="M90.023,31.571a6.2,6.2,0,0,1-.736,3.066,7.2,7.2,0,0,1-2,2.305,9.033,9.033,0,0,1-3.047,1.464,14.323,14.323,0,0,1-3.9.5,18.546,18.546,0,0,1-4.99-.669,11.8,11.8,0,0,1-3.162-1.383c-2.208-1.372-.632-4.864,2.518-2.951a7.635,7.635,0,0,0,1.828.772,14.727,14.727,0,0,0,4.2.565,7.507,7.507,0,0,0,1.805-.219,5.593,5.593,0,0,0,1.633-.669,3.509,3.509,0,0,0,1.161-1.164,3.171,3.171,0,0,0,.448-1.706,2.442,2.442,0,0,0-1.138-2.271,8.119,8.119,0,0,0-2.863-.991c-1.253-.2-2.5-.426-3.726-.669a13.507,13.507,0,0,1-3.335-1.118A6.706,6.706,0,0,1,72.3,24.448a5.3,5.3,0,0,1-.943-3.262,6.784,6.784,0,0,1,.69-3.066,6.71,6.71,0,0,1,1.92-2.328,9.609,9.609,0,0,1,2.84-1.464,11.266,11.266,0,0,1,3.484-.519,18.924,18.924,0,0,1,4.887.565,8.585,8.585,0,0,1,2.081.784C90.046,16.737,88.379,20,85.607,18.7a11.347,11.347,0,0,0-1.817-.68,13.106,13.106,0,0,0-3.507-.45,5.611,5.611,0,0,0-3.507,1.014,3.092,3.092,0,0,0-1.334,2.547,2.09,2.09,0,0,0,1.081,1.925,9.2,9.2,0,0,0,2.7,1.014c1.081.242,2.254.484,3.5.692a14.185,14.185,0,0,1,3.5,1.06,7.427,7.427,0,0,1,2.7,2.075,5.673,5.673,0,0,1,1.1,3.677M63,23.215c-.126-3.354-2.058-5.5-5.577-5.5-4.381,0-5.577,2.951-5.577,6.731h9.567C62.748,24.448,63.058,24.563,63,23.215ZM51.8,27.906v1.637c0,5.556,6.635,6.651,10.6,4.357,3.116-1.8,4.9,1.844,1.955,3.377a13.554,13.554,0,0,1-6.543,1.579c-5.439,0-10.268-2.9-10.268-8.956V23.411c0-5.844,4.128-9.555,9.854-9.555,5.634,0,9.854,3.343,9.854,9.209,0,4.334-1.667,4.852-4.094,4.852H51.8Zm102.788,4.38a2.09,2.09,0,0,1,4.151.484,32.257,32.257,0,0,1-14.408,23.19,32.175,32.175,0,0,1-44.592-9.44,27.641,27.641,0,0,1-3.381-7.5,37.89,37.89,0,0,1-1.3-7.734c-.023-.346,0-7.146.035-13.416H93.1c-3.059,0-2.748-3.746-.345-3.746h2.346l.011-1.314c.012-3.02.023-5.244.023-5.429a2.076,2.076,0,1,1,4.151-.035c0,.207-.011,2.444-.023,5.486l-.011,1.3c2.978.012,6.025.012,9.912.023,3.047.012,2.806,3.746.069,3.746-4.347,0-7.095-.012-10-.023-.023,6.143-.057,12.782-.034,13.117a34.972,34.972,0,0,0,1.15,6.881A23.37,23.37,0,0,0,103.2,44.25a28.073,28.073,0,0,0,51.388-11.964ZM43.062,22.569V36.251c0,3.227-4.243,3.423-4.243.046V23.111c.046-6.028-8.406-5.867-11.706-4.795V36.17a2.132,2.132,0,1,1-4.243,0V15.146C31.9,12.5,43.062,13.21,43.062,22.569Zm104.1,11.284a1.837,1.837,0,0,1,2.219-1.383,1.9,1.9,0,0,1,1.38,2.259,25,25,0,0,1-7.026,12.344,24.189,24.189,0,0,1-30.828,2.167A25,25,0,0,1,102.8,33.15a1.857,1.857,0,1,1,3.657-.645,21.2,21.2,0,0,0,8.578,13.658A20.562,20.562,0,0,0,141.2,44.33,21.376,21.376,0,0,0,147.161,33.853Z" transform="translate(-22.09 -1.2)" fill="#00af4c"/>
      <path id="Path_73" data-name="Path 73" d="M95.49,3.5a1.449,1.449,0,0,0-2.04,0h0a1.442,1.442,0,0,0,2.04,2.04h0a1.435,1.435,0,0,0,.42-1.02,1.453,1.453,0,0,0-.42-1.02m-.5.65a.31.31,0,0,0-.33-.33h-.47v.65h.47a.341.341,0,0,0,.24-.09A.261.261,0,0,0,94.99,4.15Zm-.28-.54a.6.6,0,0,1,.24.05.417.417,0,0,1,.16.13.508.508,0,0,1,.09.18.645.645,0,0,1,.03.2.772.772,0,0,1-.02.15.591.591,0,0,1-.06.14.58.58,0,0,1-.1.12.419.419,0,0,1-.14.09l.34.78h-.27l-.31-.75H94.2v.74h-.25V3.61Zm-.25-.81a1.682,1.682,0,0,1,1.22.51,1.741,1.741,0,0,1,.51,1.22,1.682,1.682,0,0,1-.51,1.22h0a1.723,1.723,0,0,1-1.22.51,1.682,1.682,0,0,1-1.22-.51h0a1.765,1.765,0,0,1-.51-1.23,1.682,1.682,0,0,1,.51-1.22h0A1.732,1.732,0,0,1,94.46,2.8Z" transform="translate(-11.865 -1.2)" fill="#fff"/>
      <path id="Path_74" data-name="Path 74" d="M59.5,7.39a1.237,1.237,0,0,1-.15.62,1.328,1.328,0,0,1-.4.45,2.021,2.021,0,0,1-.61.28,3.186,3.186,0,0,1-.77.09,4.025,4.025,0,0,1-1.08-.12,1.435,1.435,0,0,1-.63-.33.792.792,0,0,1-.24-.47,6.466,6.466,0,0,1-.03-.69h.22a1.349,1.349,0,0,0,.46.85,1.636,1.636,0,0,0,1.08.31,1.5,1.5,0,0,0,.92-.22.653.653,0,0,0,.29-.55.717.717,0,0,0-.25-.56,2.641,2.641,0,0,0-.75-.44l-.66-.27a2.934,2.934,0,0,1-.98-.6,1.213,1.213,0,0,1-.35-.89,1.349,1.349,0,0,1,.14-.62,1.272,1.272,0,0,1,.38-.45,1.9,1.9,0,0,1,.57-.28,2.753,2.753,0,0,1,.73-.09,3.76,3.76,0,0,1,1.04.12,1.451,1.451,0,0,1,.62.33.79.79,0,0,1,.24.48,6.466,6.466,0,0,1,.03.69H59.1a1.349,1.349,0,0,0-.46-.85,1.545,1.545,0,0,0-1.03-.31,1.274,1.274,0,0,0-.82.22.669.669,0,0,0-.28.55.771.771,0,0,0,.23.53,1.773,1.773,0,0,0,.65.41l.66.28a3.39,3.39,0,0,1,1.07.63,1.1,1.1,0,0,1,.38.9M53.39,3.85a2.333,2.333,0,0,0,.65-.64,1.565,1.565,0,0,0,.23-.85l-.33.11a.582.582,0,0,1-.43-.18.582.582,0,0,1-.18-.43.611.611,0,0,1,.19-.47A.633.633,0,0,1,54,1.2a.724.724,0,0,1,.53.2.771.771,0,0,1,.19.57,2.166,2.166,0,0,1-.32,1.21,2.414,2.414,0,0,1-.9.83ZM51.26,5.84a3.129,3.129,0,0,0-.29-1.48.933.933,0,0,0-.87-.51.767.767,0,0,0-.46.15,1.314,1.314,0,0,0-.36.41,2.585,2.585,0,0,0-.24.63,3.32,3.32,0,0,0-.09.8Zm1.03.45H48.94a3.225,3.225,0,0,0,.1.84,2.156,2.156,0,0,0,.29.67,1.509,1.509,0,0,0,.47.44,1.276,1.276,0,0,0,.63.15,1.67,1.67,0,0,0,.9-.23,2.406,2.406,0,0,0,.65-.66l.22.17a2.359,2.359,0,0,1-.87.9,2.291,2.291,0,0,1-1.12.27,2.191,2.191,0,0,1-1.02-.22,2.053,2.053,0,0,1-.72-.58,2.415,2.415,0,0,1-.44-.86,3.623,3.623,0,0,1-.14-1.06,3.621,3.621,0,0,1,.15-1.06,2.5,2.5,0,0,1,.44-.86,2.074,2.074,0,0,1,.7-.58,2,2,0,0,1,.93-.22,2.086,2.086,0,0,1,1.67.63,2.687,2.687,0,0,1,.54,1.8Zm-8.3-1.44a1.98,1.98,0,0,0-.14-.8c-.09-.2-.3-.3-.64-.3H43.1V3.52h.88a1.374,1.374,0,0,1,.64.12.642.642,0,0,1,.3.38h.06a1.8,1.8,0,0,1,.5-.41,1.618,1.618,0,0,1,.83-.2,1.447,1.447,0,0,1,.35.04.806.806,0,0,1,.31.13,1.045,1.045,0,0,1,.21.21,2.45,2.45,0,0,1,.18.29l-.44.33a.752.752,0,0,0-.36-.25,1.476,1.476,0,0,0-.53-.08,1.281,1.281,0,0,0-.61.15,1.21,1.21,0,0,0-.44.4V8.72h-.99V4.85ZM42.31,8.72h-.55l-.39-.44h-.06a1.95,1.95,0,0,1-.57.38,2.06,2.06,0,0,1-.86.17,3.1,3.1,0,0,1-.69-.08,1.5,1.5,0,0,1-.6-.31,1.636,1.636,0,0,1-.43-.61A2.6,2.6,0,0,1,38,6.84V4.85a1.98,1.98,0,0,0-.14-.8c-.09-.2-.3-.3-.64-.3h-.11V3.52H38a2.143,2.143,0,0,1,.48.05.544.544,0,0,1,.31.2.9.9,0,0,1,.16.41,4.139,4.139,0,0,1,.04.67V6.84a2.033,2.033,0,0,0,.1.7,1.234,1.234,0,0,0,.28.46.9.9,0,0,0,.39.25,1.33,1.33,0,0,0,.45.08,1.09,1.09,0,0,0,.61-.18,2.179,2.179,0,0,0,.49-.41V3.52h.99v5.2ZM34.46,3.96h-.77V3.52h.77V2.53l.55-.66h.44V3.53h1.33v.44H35.45V7.4c0,.66.26.99.77.99a1.351,1.351,0,0,0,.48-.07,2.832,2.832,0,0,0,.35-.15l.11.22c-.06.04-.13.09-.2.14a1.461,1.461,0,0,1-.28.14,2.335,2.335,0,0,1-.9.15,1.359,1.359,0,0,1-.96-.34,1.41,1.41,0,0,1-.37-1.09V3.96Zm-2.3,4.76-.39-.5h-.06a1.65,1.65,0,0,1-.54.41,2.208,2.208,0,0,1-1.01.2,2,2,0,0,1-.51-.07,1.56,1.56,0,0,1-.52-.25,1.492,1.492,0,0,1-.41-.48,1.54,1.54,0,0,1-.17-.75,1.217,1.217,0,0,1,.23-.75,1.485,1.485,0,0,1,.62-.47,3.283,3.283,0,0,1,.9-.25,7.4,7.4,0,0,1,1.07-.07h.33a4.19,4.19,0,0,0-.09-.95,1.659,1.659,0,0,0-.24-.58A.765.765,0,0,0,31,3.93a1.389,1.389,0,0,0-.46-.08,1.457,1.457,0,0,0-.78.2,1.108,1.108,0,0,0-.44.74h-.5a4.626,4.626,0,0,1,.03-.54.767.767,0,0,1,.24-.46.846.846,0,0,1,.28-.18,2.338,2.338,0,0,1,.4-.12c.15-.03.3-.05.47-.07s.33-.02.5-.02a3.379,3.379,0,0,1,.72.08,1.492,1.492,0,0,1,.62.33,1.75,1.75,0,0,1,.43.71,3.666,3.666,0,0,1,.16,1.2V8.7h-.51Zm-.44-2.54h-.33a2.4,2.4,0,0,0-1.3.3.923.923,0,0,0-.47.8,1.078,1.078,0,0,0,.09.46,1.144,1.144,0,0,0,.23.33.916.916,0,0,0,.33.19,1.336,1.336,0,0,0,.4.06,1.009,1.009,0,0,0,.65-.2,2.168,2.168,0,0,0,.4-.46ZM23.09,4.85a1.98,1.98,0,0,0-.14-.8c-.09-.2-.3-.3-.64-.3h-.22V3.52h.99a1.374,1.374,0,0,1,.64.12.64.64,0,0,1,.3.33h.06a1.95,1.95,0,0,1,.57-.38,2.06,2.06,0,0,1,.86-.17,3.1,3.1,0,0,1,.69.08,1.5,1.5,0,0,1,.6.31,1.636,1.636,0,0,1,.43.61,2.329,2.329,0,0,1,.17.98V8.72h-.99V5.4a2.408,2.408,0,0,0-.1-.7,1.159,1.159,0,0,0-.28-.46.9.9,0,0,0-.39-.25,1.33,1.33,0,0,0-.45-.08,1.09,1.09,0,0,0-.61.18,2.179,2.179,0,0,0-.49.41V8.72H23.1V4.85Z" transform="translate(-22.09 -1.2)" fill="#ef9f20" fill-rule="evenodd"/>
      <path id="Path_75" data-name="Path 75" d="M128.44,18.32a.31.31,0,1,1-.31.31.312.312,0,0,1,.31-.31m-2.95,1.17,1.47-.42a2.211,2.211,0,0,1,2.06-1.82c1.3-.17,5.23.7,7.56-.71,2.07-1.14,6.71-4.01,6.71-4.01.71,3.86-1.42,6.16-4.69,5.68.86.69,3.3.28,4.25-.91l1.62-.11a6.783,6.783,0,0,1-7.4,1.71c3.01,1.91,6.57.01,8.05-1.75l-.01-.01,1-.08a8.157,8.157,0,0,1-10.23,2.52c3.7,2.86,8.55.57,10.79-2.57l.86-.07a9.077,9.077,0,0,1-7.02,4.64c-4.12,3.1-8.04,1.44-10.86-.23C128.26,20.52,127.3,19.63,125.49,19.49Z" transform="translate(-4.378 0.807)" fill="#ef9f20" fill-rule="evenodd"/>
      <path id="Path_76" data-name="Path 76" d="M143.76,13.26l3.53-4.02-.48-.87-3.05,4.52Zm.04.55,4.11-2.59-.37-1.55-3.75,3.75Zm-.07-1.08,2.73-4.97a3.945,3.945,0,0,0-.64-.8l-2.14,5.37S143.73,12.72,143.73,12.73Z" transform="translate(-4.378 0.8)" fill="#e39f25" fill-rule="evenodd"/>
      <path id="Path_77" data-name="Path 77" d="M121.93,18.32a.256.256,0,0,1,.26.25.255.255,0,1,1-.26-.25m-18.67-5.87c.52.55,1.1,1.13,1.72,1.72a10.454,10.454,0,0,0,1.92,5.85c.56.79,3.18,3.78,5.6,3.51a10.012,10.012,0,0,1-7.04-8.9c.29.27.59.53.9.8a9.348,9.348,0,0,0,1.52,3.67c.46.66,2.49,2.92,3.81,2.75a9.863,9.863,0,0,1-3.43-3.02,8.954,8.954,0,0,1-1.32-2.91q.6.495,1.23.96a8.188,8.188,0,0,0,.79,1.46c.39.57,1.75,1.95,2.34,1.7a8.289,8.289,0,0,1-1.96-1.96,6.652,6.652,0,0,1-.39-.63c2.61,1.8,5.53,3.14,8.33,3.03a10.652,10.652,0,0,1-4.21-1.85,12.825,12.825,0,0,1,4.86-11.27c-.83,3.56-1.14,7.59-.05,11.06,1.04-.56,3.05-2.13,4.53-.53a5.48,5.48,0,0,1,.7.88l1.11.38a4,4,0,0,0-2.01,1.08c-1.49,2.28-.53,5.2-3.87,7.77-1.73,1.33-3.7,2.79-3.7,2.79l-.05,1.78a4.357,4.357,0,0,1-2.24-2.49,10.807,10.807,0,0,1-.39-4.23,6.706,6.706,0,0,0,3.17-.69C108.08,26.81,102.7,19.38,103.26,12.45Z" transform="translate(-8.381 -1.2)" fill="#ef9f20" fill-rule="evenodd"/>
      <path id="Path_78" data-name="Path 78" d="M113.74,32.43l1.65,5.09,1,.04-2.33-4.93Zm-.49-.26.12,4.86,1.52.48-1.3-5.14Zm.96.5,2.88,4.89a3.622,3.622,0,0,0,1.01-.15l-3.52-4.58S114.22,32.67,114.21,32.67Z" transform="translate(-8.743 -0.8)" fill="#ef9f20" fill-rule="evenodd"/>
    </g>
  </g>
</svg>
