<svg xmlns="http://www.w3.org/2000/svg" xmlns:xlink="http://www.w3.org/1999/xlink" width="130" height="99.548" viewBox="0 0 130 99.548"><defs><clipPath id="clip-path"><rect id="Rectangle_53" data-name="Rectangle 53" width="130" height="99.548" fill="#35674e"></rect></clipPath></defs><g id="Group_71" data-name="Group 71" transform="translate(0 -0.001)"><g id="Group_70" data-name="Group 70" transform="translate(0 0.001)" clip-path="url(#clip-path)"><path id="Path_1146" data-name="Path 1146" d="M117.631,60.629a22.05,22.05,0,0,1-2.792-1.83c-8.682-7.067-12.982-16.186-12.634-27.4.183-5.874.693-11.742.737-17.616.035-4.762-2.56-8.161-6.937-9.785-2.276-.844-4.878-.808-7.426-1.184A42.389,42.389,0,0,1,94.287.559a18.813,18.813,0,0,1,23.357,18.283c.041,13.2.012,26.393.006,39.589,0,.588-.04,1.229-.02,2.2" transform="translate(-34.305 -0.001)" fill="#35674e"></path><path id="Path_1147" data-name="Path 1147" d="M74.428,63.221c-.033-.6.009-1.869.009-2.467-.009-12.64-.048-25.28.009-37.92a21.624,21.624,0,0,1,2.719-11.055c1.732-2.95,3.958-5.184,7.79-5.081A7.083,7.083,0,0,1,91.778,15.9a18.331,18.331,0,0,1-2.765,5.4A67.064,67.064,0,0,0,75.678,56a65.374,65.374,0,0,1-1.251,7.217" transform="translate(-28.819 -2.593)" fill="#35674e"></path><path id="Path_1148" data-name="Path 1148" d="M123.94,130.22h1.322c3.067,0,4.738-1.347,4.738-3.641,0-2.643-1.771-3.391-3.966-3.766-.449-.075-1.77-.349-2.194-.424-1.4-.249-2.295-.648-2.295-1.9,0-1.072.773-1.721,2.668-1.721h.873c2,0,2.618.848,2.618,1.945H129.8c0-2.17-1.571-3.815-4.589-3.815H124.09c-2.993,0-4.638,1.322-4.638,3.542,0,2.593,1.646,3.317,3.865,3.716.449.1,1.746.349,2.12.424,1.521.249,2.469.648,2.469,2,0,1.1-.8,1.746-2.743,1.746h-1.1c-2.045,0-2.718-.823-2.743-2.045h-2.07c.025,2.32,1.621,3.94,4.689,3.94M118.08,117.2h-1.871c-3.192,0-5.212,1.9-5.212,5.087V129.9h2.07v-7.381a3.124,3.124,0,0,1,3.192-3.317h1.821Zm-18.6,5.486v-.624a2.97,2.97,0,0,1,3.192-3.267h.773a2.971,2.971,0,0,1,3.192,3.267v.624Zm3.192,7.531h.773c2.818,0,4.663-1.447,5.137-3.89h-2.145a2.923,2.923,0,0,1-2.993,1.92h-.773a2.963,2.963,0,0,1-3.192-3.242v-.474h9.2V122.14c0-3.266-1.92-5.237-5.237-5.237h-.773c-3.317,0-5.261,1.971-5.261,5.237v2.843c0,3.242,1.945,5.237,5.261,5.237M88.055,112.24h-2.07V129.9h2.07v-3.99l2.194-2.244,4.29,6.234h2.518l-5.336-7.581,4.813-5.112H93.791l-3.442,3.666-2.294,2.369ZM77.432,128.375h-.873c-1.82,0-2.768-.972-2.768-2.219s.947-2.195,2.768-2.195h4.09v1.372a2.927,2.927,0,0,1-3.217,3.042m-1.172,1.846h1.4a3.892,3.892,0,0,0,3.491-1.771,2.195,2.195,0,0,0,2.27,1.447h1.047v-1.82h-.623c-.848,0-1.172-.449-1.172-1.6v-4.589c0-3.067-1.621-4.988-5.062-4.988h-.349c-2.768,0-4.713,1.347-5.137,3.99h2.094a2.745,2.745,0,0,1,2.968-2.095h.574a2.592,2.592,0,0,1,2.893,2.668v.7H76.259c-2.918,0-4.564,1.646-4.564,4.04,0,2.344,1.646,4.015,4.564,4.015M50.8,122.04V129.9h2.07v-7.78a2.886,2.886,0,0,1,2.943-3.192h.4a2.886,2.886,0,0,1,2.942,3.192v7.78h2.07v-7.78a2.9,2.9,0,0,1,2.967-3.192h.374a2.917,2.917,0,0,1,2.968,3.192v7.78H69.6V122.04c0-3.167-1.846-5.137-4.913-5.137h-.4A4.338,4.338,0,0,0,60.2,119.1a4.352,4.352,0,0,0-4.115-2.195h-.374c-3.092,0-4.913,1.971-4.913,5.137m-8.454-8.03v11.047c0,3.142,2.02,4.838,5.062,4.838h1.547v-1.945H47.706c-1.846,0-3.292-.9-3.292-3.067v-5.76H48.6V117.2h-4.19v-3.192Zm-8,16.21h1.322c3.067,0,4.738-1.347,4.738-3.641,0-2.643-1.771-3.391-3.966-3.766-.449-.075-1.77-.349-2.194-.424-1.4-.249-2.295-.648-2.295-1.9,0-1.072.773-1.721,2.668-1.721h.873c2,0,2.618.848,2.618,1.945H40.2c0-2.17-1.571-3.815-4.589-3.815H34.489c-2.993,0-4.638,1.322-4.638,3.542,0,2.593,1.646,3.317,3.865,3.716.449.1,1.746.349,2.12.424,1.521.249,2.469.648,2.469,2,0,1.1-.8,1.746-2.743,1.746h-1.1c-2.045,0-2.718-.823-2.743-2.045h-2.07c.025,2.32,1.621,3.94,4.689,3.94m-15.586-7.531v-.624a2.97,2.97,0,0,1,3.192-3.267h.773a2.97,2.97,0,0,1,3.192,3.267v.624Zm3.192,7.531h.773c2.818,0,4.663-1.447,5.137-3.89H25.711a2.924,2.924,0,0,1-2.993,1.92h-.773a2.963,2.963,0,0,1-3.192-3.242v-.474h9.2V122.14c0-3.266-1.92-5.237-5.237-5.237h-.773c-3.317,0-5.262,1.971-5.262,5.237v2.843c0,3.242,1.945,5.237,5.262,5.237M0,129.9H2.12V118.6l-.075-2.943,1.148,1.8L11.9,129.9h2.119V112.24H11.9v11.272l.075,2.967-1.123-1.8-8.7-12.444H0Z" transform="translate(0 -43.469)" fill="#35674e"></path><path id="Path_1149" data-name="Path 1149" d="M120.838,155.634h.468c1.05,0,1.605-.467,1.605-1.235,0-.944-.643-1.183-1.447-1.306-.132-.026-.512-.1-.644-.115-.574-.1-.963-.247-.963-.8,0-.45.309-.732,1.051-.732h.353c.759,0,1.042.327,1.042.786h.528c0-.733-.52-1.27-1.534-1.27h-.424c-1.006,0-1.552.458-1.552,1.208,0,.909.608,1.138,1.393,1.271.15.026.494.088.609.115.635.1,1.05.248,1.05.847,0,.468-.327.751-1.086.751h-.423c-.777,0-1.077-.318-1.086-.83h-.528c.009.794.546,1.314,1.588,1.314m-2.568-4.57h-.645a1.622,1.622,0,0,0-1.737,1.711v2.753h.529v-2.7a1.183,1.183,0,0,1,1.226-1.253h.627Zm-7.147,2.056V152.7a1.159,1.159,0,0,1,1.227-1.245h.344a1.154,1.154,0,0,1,1.227,1.245v.424Zm1.227,2.513h.344a1.617,1.617,0,0,0,1.72-1.314h-.546a1.136,1.136,0,0,1-1.174.8h-.344a1.151,1.151,0,0,1-1.227-1.236V153.6h3.326v-.881a1.639,1.639,0,0,0-1.755-1.755h-.344a1.643,1.643,0,0,0-1.755,1.755v1.173a1.645,1.645,0,0,0,1.755,1.747m-4.852-.52h-.336a1.149,1.149,0,0,1-1.227-1.244v-1.156a1.149,1.149,0,0,1,1.227-1.244h.336a1.154,1.154,0,0,1,1.227,1.244v1.156a1.154,1.154,0,0,1-1.227,1.244m-.344.51h.423a1.618,1.618,0,0,0,1.684-1.746V152.7a1.636,1.636,0,0,0-1.755-1.746h-.353a1.625,1.625,0,0,0-1.746,1.746v4.623h.528v-2.055l-.009-.211a1.453,1.453,0,0,0,1.227.563m-4.967-.51h-.344a1.154,1.154,0,0,1-1.227-1.244v-1.156a1.158,1.158,0,0,1,1.227-1.244h.344a1.158,1.158,0,0,1,1.227,1.244v1.156a1.154,1.154,0,0,1-1.227,1.244m-.353.52h.362a1.638,1.638,0,0,0,1.746-1.746v-1.174a1.636,1.636,0,0,0-1.746-1.755h-.362a1.643,1.643,0,0,0-1.755,1.755v1.174a1.645,1.645,0,0,0,1.755,1.746m-4.464-6.325v4.871a1.2,1.2,0,0,0,1.3,1.349h.556v-.5h-.458a.768.768,0,0,1-.865-.83v-4.888ZM92.56,153.12V152.7a1.159,1.159,0,0,1,1.227-1.245h.344a1.154,1.154,0,0,1,1.227,1.245v.424Zm1.227,2.513h.344a1.617,1.617,0,0,0,1.72-1.314h-.546a1.136,1.136,0,0,1-1.174.8h-.344a1.151,1.151,0,0,1-1.227-1.236V153.6h3.326v-.881a1.638,1.638,0,0,0-1.755-1.755h-.344a1.643,1.643,0,0,0-1.755,1.755v1.173a1.645,1.645,0,0,0,1.755,1.747m-4.985-.106h.556l1.852-4.464h-.573l-1.156,2.8-.4,1.007-.406-1.006-1.156-2.8h-.574Zm-5.983-2.407V152.7a1.159,1.159,0,0,1,1.227-1.245h.344a1.155,1.155,0,0,1,1.227,1.245v.424Zm1.227,2.513h.344a1.617,1.617,0,0,0,1.72-1.314h-.546a1.136,1.136,0,0,1-1.174.8h-.344a1.152,1.152,0,0,1-1.227-1.236V153.6h3.326v-.881a1.638,1.638,0,0,0-1.755-1.755h-.344a1.643,1.643,0,0,0-1.755,1.755v1.173a1.645,1.645,0,0,0,1.755,1.747m-5.418-.643H76.546v-5.145h2.083a1.514,1.514,0,0,1,1.651,1.589v1.959a1.525,1.525,0,0,1-1.651,1.6M76,155.528h2.646a2.075,2.075,0,0,0,2.187-2.117v-1.985a2.065,2.065,0,0,0-2.187-2.117H76Zm-7.068-.422h-.388a1.122,1.122,0,0,1-1.21-1.157v-.255a1.11,1.11,0,0,1,1.174-1.148h1.721v1.032c0,.945-.485,1.527-1.3,1.527m-.433.519h.45a1.538,1.538,0,0,0,1.553-.952,1.448,1.448,0,0,0,1.437.855h.168v-.493H72.02c-.776,0-1.271-.547-1.271-1.509v-.98h.909v-.511h-.909v-.582h-.52v.582H68.641a1.012,1.012,0,0,1-1.112-1.042v-.2c0-.689.442-1.077,1.21-1.077H69c.741,0,1.068.292,1.165.786h.546a1.438,1.438,0,0,0-1.641-1.305H68.7a1.523,1.523,0,0,0-1.711,1.534v.248a1.406,1.406,0,0,0,.731,1.279,1.5,1.5,0,0,0-.917,1.447v.282a1.6,1.6,0,0,0,1.694,1.64m-7.526.009h.468c1.05,0,1.6-.467,1.6-1.235,0-.944-.643-1.183-1.446-1.306-.132-.026-.512-.1-.645-.115-.574-.1-.962-.247-.962-.8,0-.45.309-.732,1.05-.732H61.4c.759,0,1.042.327,1.042.786h.528c0-.733-.52-1.27-1.534-1.27h-.424c-1.007,0-1.553.458-1.553,1.208,0,.909.608,1.138,1.393,1.271.15.026.494.088.61.115.635.1,1.05.248,1.05.847,0,.468-.327.751-1.085.751H61c-.776,0-1.077-.318-1.085-.83h-.529c.009.794.546,1.314,1.588,1.314m-2.568-4.57h-.644a1.622,1.622,0,0,0-1.737,1.711v2.753h.528v-2.7a1.184,1.184,0,0,1,1.227-1.253h.626Zm-7.147,2.056V152.7a1.159,1.159,0,0,1,1.227-1.245h.344a1.154,1.154,0,0,1,1.227,1.245v.424Zm1.227,2.513h.344a1.617,1.617,0,0,0,1.72-1.314H54a1.136,1.136,0,0,1-1.174.8h-.344a1.152,1.152,0,0,1-1.227-1.236V153.6h3.326v-.881a1.638,1.638,0,0,0-1.755-1.755h-.344a1.643,1.643,0,0,0-1.755,1.755v1.173a1.645,1.645,0,0,0,1.755,1.747m-4.959-.52h-.344a1.154,1.154,0,0,1-1.226-1.244v-1.156a1.158,1.158,0,0,1,1.226-1.244h.344a1.159,1.159,0,0,1,1.227,1.244v1.156a1.154,1.154,0,0,1-1.227,1.244m-.353.52h.362a1.625,1.625,0,0,0,1.746-1.746v-4.579h-.528v2.011l.009.211a1.458,1.458,0,0,0-1.227-.572h-.424a1.627,1.627,0,0,0-1.694,1.755v1.174a1.645,1.645,0,0,0,1.755,1.746m-4.464-6.325v4.871a1.2,1.2,0,0,0,1.3,1.349h.556v-.5H44.1a.768.768,0,0,1-.865-.83v-4.888Zm-2.179,1.066h.545v-.828h-.545Zm.009,5.153h.528v-4.464h-.528Zm-3.61.106H37.2a1.624,1.624,0,0,0,1.737-1.737v-2.833h-.528V153.9a1.142,1.142,0,0,1-1.209,1.217h-.274a1.128,1.128,0,0,1-1.192-1.217v-2.833H35.2V153.9a1.617,1.617,0,0,0,1.728,1.737m-4.87-3.519H29.749v-2.277h2.312a.912.912,0,0,1,.953.953v.371a.913.913,0,0,1-.953.953M32.238,155H29.749v-2.357h2.48a.922.922,0,0,1,.962.963v.423a.922.922,0,0,1-.953.971m-3.026.528h3.061a1.384,1.384,0,0,0,1.455-1.437v-.441a1.371,1.371,0,0,0-.776-1.341,1.315,1.315,0,0,0,.608-1.209v-.388a1.351,1.351,0,0,0-1.42-1.4H29.212Z" transform="translate(-11.313 -57.78)" fill="#fff"></path></g></g></svg>