<svg xmlns="http://www.w3.org/2000/svg" xmlns:xlink="http://www.w3.org/1999/xlink" width="260" height="100" viewBox="0 0 260 100"><defs><clipPath id="clip-path"><rect id="Rectangle_15" data-name="Rectangle 15" width="260" height="100" transform="translate(1382 3056)" fill="#95b67b"></rect></clipPath><clipPath id="clip-path-2"><rect id="Rectangle_19" data-name="Rectangle 19" width="97.372" height="90" fill="#95b67b"></rect></clipPath></defs><g id="Mask_Group_3" data-name="Mask Group 3" transform="translate(-1382 -3056)" clip-path="url(#clip-path)"><g id="Group_31" data-name="Group 31" transform="translate(1464 3061)"><g id="Group_30" data-name="Group 30" clip-path="url(#clip-path-2)"><path id="Path_52" data-name="Path 52" d="M20.819,86.228l3.522,6.136A59.1,59.1,0,0,1,47.1,87.139V77.905c-3.969,1.88-7.749,1.72-11.04-1.264s-3.8-6.744-2.34-10.863c-4-2.79-5.781-6.535-4.206-11.247,1.54-4.606,5.129-6.555,9.975-6.447a9.66,9.66,0,0,1,4.253-6.069,9.433,9.433,0,0,1,5.647-1.429c4.008.194,7.1,2.838,8.649,7.475,4.91-.075,8.607,1.918,10.054,6.8,1.362,4.6-.373,8.247-4.3,10.912,1.409,3.972,1.039,7.651-2.086,10.623-3.313,3.151-7.169,3.487-11.3,1.493v9.243a58.916,58.916,0,0,1,22.75,5.236l3.484-6.051a11.766,11.766,0,0,1-4.261-7.233,11.425,11.425,0,0,1,8.482-12.91,1.4,1.4,0,0,0,1.207-1.105,7.6,7.6,0,0,1,6.618-5.307,7.641,7.641,0,0,1,6.341,12.712,1.355,1.355,0,0,0-.437,1.472,10.894,10.894,0,0,1-2.989,11.5A11.027,11.027,0,0,1,80.1,88.116c-.214-.064-.434-.111-.754-.192L76,93.735c.427.251.8.477,1.186.7,8.778,5.016,15.651,11.844,19.948,21.088a2.6,2.6,0,0,1,.065,1.992c-.568,1.126-2.053.8-2.786-.441-1.622-2.738-3.3-5.442-4.973-8.149a10.58,10.58,0,0,0-.887-1.085,44.438,44.438,0,0,1-3.772,3.26,21.96,21.96,0,0,1-4.556,2.5,5.974,5.974,0,0,1-6.63-1.461c-2.317-2.265-5.032-2.764-8.092-2.283a17.3,17.3,0,0,1-3.39.276c-3.727-.159-5.831-2.635-5.474-6.347a29.755,29.755,0,0,0,.5-5.31,53.9,53.9,0,0,0-1.4-7.1,1.205,1.205,0,0,0-.842-.721,53.458,53.458,0,0,0-15.113.385c.368,1.57.783,3.056,1.05,4.567a18.028,18.028,0,0,1,.347,3.725,5.111,5.111,0,0,1-6.044,5.228c-1.241-.13-2.46-.454-3.692-.669-2.378-.413-3.3.377-3.527,2.747a21.308,21.308,0,0,1-.878,4.788,4.652,4.652,0,0,1-5.809,3.128,13.828,13.828,0,0,1-2.974-1.1c-3.262-1.615-6.491-3.294-9.992-5.081C6.9,110.528,5.528,112.65,4.2,114.8c-.418.675-.721,1.42-1.074,2.134-.558,1.13-1.366,1.534-2.257,1.127-.87-.4-1.115-1.336-.6-2.44a42.758,42.758,0,0,1,11.586-15.191c2.971-2.457,6.22-4.579,9.492-6.958l-3.21-5.578a11.952,11.952,0,0,1-7.223.408A11.39,11.39,0,0,1,2.868,74.08,1.433,1.433,0,0,0,2.5,72.489,7.589,7.589,0,0,1,1.32,64,7.7,7.7,0,0,1,8.8,59.765a7.8,7.8,0,0,1,6.68,5.272,1.756,1.756,0,0,0,.943,1.04,11.487,11.487,0,0,1,4.906,19.817,3.828,3.828,0,0,1-.506.334M50.334,59.955c3.161-2.648,5.057-3.51,8.107-3.762,1.372-.113,2.206.431,2.261,1.474.053,1.019-.6,1.566-1.979,1.662a8.758,8.758,0,0,0-8.3,7.7,38.691,38.691,0,0,0-.052,5.808,2.51,2.51,0,0,0,.767,1.613,6.163,6.163,0,0,0,8.044.033,6.332,6.332,0,0,0,1.371-7.964c-1.082-1.857-.909-2.4,1.045-3.264a6.265,6.265,0,0,0-3.919-11.849c-1.988.445-2.491.072-2.7-2a6.252,6.252,0,0,0-12.441-.056c-.243,2.176-.678,2.5-2.773,2.044a6.265,6.265,0,0,0-4,11.8c2.169,1.017,2.267,1.332,1.091,3.5a6.255,6.255,0,0,0,9.665,7.66,1.7,1.7,0,0,0,.616-1.008,47.764,47.764,0,0,0-.074-6.377c-.51-4.321-3.957-7.325-8.467-7.644-1.188-.084-1.822-.651-1.8-1.607.022-.99.784-1.608,1.987-1.528a15.992,15.992,0,0,1,2.25.322,12.371,12.371,0,0,1,6.136,3.512c0-1.752,0-3.252,0-4.753,0-1.938-.009-3.876.008-5.815a1.576,1.576,0,1,1,3.146-.162c.037.377.013.76.013,1.139,0,3.106,0,6.212,0,9.524m8.96,31.329c-.027.223-.078.342-.048.434a23.085,23.085,0,0,1,.549,12.139c-.424,2.06.538,3.07,2.668,3.127a9,9,0,0,0,1.923-.136c4.28-.82,8.149-.186,11.369,3.018a3.136,3.136,0,0,0,3.365.812,16.547,16.547,0,0,0,7.2-5.322A51.717,51.717,0,0,0,59.295,91.283m21.712-6.231a4.821,4.821,0,0,0,.573.233A8.311,8.311,0,0,0,91.24,73.92c-.63-1.556-.563-1.893.74-2.888a4.5,4.5,0,0,0-3.2-8.093,4.526,4.526,0,0,0-3.934,3.852c-.321,1.928-.383,1.992-2.2,2.247a8.234,8.234,0,0,0-7.194,9.3,7.535,7.535,0,0,0,2.811,5.138c1.358-2.354,2.629-4.6,3.942-6.818a1.561,1.561,0,0,1,2.556-.5,1.645,1.645,0,0,1,.089,2.185c-1.277,2.193-2.525,4.4-3.843,6.708m-61.8-1.626c3-2.226,3.8-6.955,1.783-10.333a8.1,8.1,0,0,0-6.244-4.07c-1.647-.2-1.875-.456-2.076-1.994a6.183,6.183,0,0,0-.133-.669,4.495,4.495,0,1,0-7.128,4.592c1.454,1.143,1.478,1.348.81,3.055a8.113,8.113,0,0,0,1.561,8.9c2.487,2.809,6.811,3.187,8.632,2.054-.192-.359-.379-.727-.584-1.086C14.722,81.931,13.585,80,12.5,78.044a1.47,1.47,0,0,1,.59-2.147,1.5,1.5,0,0,1,2.081.558c.219.308.388.651.578.98l3.458,5.992m17.6,8.135c-10.265,2.4-19,6.922-26.243,14.435,1.386.711,2.629,1.356,3.878,1.988q3.148,1.592,6.306,3.167a4.021,4.021,0,0,0,.754.25c1.52.408,2.383.019,2.772-1.5a20.683,20.683,0,0,0,.512-3.708c.263-3.805,2.818-5.969,6.588-5.464,1.2.161,2.38.477,3.578.666,2.156.341,3.248-.464,3.063-2.615-.2-2.363-.768-4.694-1.207-7.223" transform="translate(0 -28.215)" fill="#95b67b"></path><path id="Path_53" data-name="Path 53" d="M46.111,4.771A13.424,13.424,0,0,1,57.53.067a15.123,15.123,0,0,1,2.788.527c1.132.309,1.6,1.091,1.326,2.015-.278.947-1.032,1.18-2.2,1.044a20.072,20.072,0,0,0-5.165-.229,9.266,9.266,0,0,0-6.477,4.436c-1.085,1.671-2.192,1.663-3.3-.007a10.132,10.132,0,0,0-11.43-4.3c-1.3.349-2.127.027-2.421-.943-.284-.938.281-1.742,1.566-2.077A13.2,13.2,0,0,1,45.367,3.91c.245.232.445.513.743.862" transform="translate(-21.271 -0.005)" fill="#95b67b"></path><path id="Path_54" data-name="Path 54" d="M202.791,4.807C205.1,2.233,207.729.543,210.939.226a26.63,26.63,0,0,1,6.077.386A1.533,1.533,0,0,1,218.359,2.6a1.647,1.647,0,0,1-2.21,1.017c-5.073-1.265-8.775.15-11.826,4.518a1.616,1.616,0,0,1-2.934,0c-3.038-4.363-6.767-5.789-11.825-4.52-1.148.288-1.914-.069-2.192-1.02-.27-.923.2-1.707,1.329-2.018a13.24,13.24,0,0,1,13.2,3.163,5.618,5.618,0,0,1,.478.489c.124.144.223.309.41.574" transform="translate(-130.251 0)" fill="#95b67b"></path></g></g></g></svg>