<svg xmlns="http://www.w3.org/2000/svg" xmlns:xlink="http://www.w3.org/1999/xlink" width="260" height="100" viewBox="0 0 260 100"><defs><clipPath id="clip-path"><rect id="Rectangle_16" data-name="Rectangle 16" width="260" height="100" transform="translate(1382 3328)" fill="#95b67b"></rect></clipPath><clipPath id="clip-path-2"><rect id="Rectangle_22" data-name="Rectangle 22" width="89.024" height="90" fill="#95b67b"></rect></clipPath></defs><g id="Mask_Group_6" data-name="Mask Group 6" transform="translate(-1382 -3328)" clip-path="url(#clip-path)"><g id="Group_37" data-name="Group 37" transform="translate(1468 3333)"><g id="Group_36" data-name="Group 36" clip-path="url(#clip-path-2)"><path id="Path_66" data-name="Path 66" d="M267.342,150.46c.009-.41.026-.82.026-1.229q0-32.178,0-64.357V83.705H282.1v1.168q0,32.178,0,64.357c0,.41.013.82.019,1.23Zm11.1-63.11h-7.376v59.389h7.376Z" transform="translate(-193.099 -60.46)" fill="#95b67b"></path><path id="Path_67" data-name="Path 67" d="M193.837,193.919c.007-.879.02-1.758.02-2.637q0-23.121,0-46.242v-1.167h14.734v1.079q0,23.912,0,47.824c0,.38.016.761.025,1.142Zm3.706-3.714h7.345V147.484h-7.345Z" transform="translate(-140.007 -103.919)" fill="#95b67b"></path><path id="Path_68" data-name="Path 68" d="M120.332,237.379q.007-16.086.014-32.172v-1.164h14.736v1.077q0,15.559,0,31.118c0,.38.02.761.03,1.141Zm3.694-3.713h7.349V207.655h-7.349Z" transform="translate(-86.915 -147.379)" fill="#95b67b"></path><path id="Path_69" data-name="Path 69" d="M46.826,264.2H61.608v16.63H46.826ZM57.9,267.858H50.518v9.249H57.9Z" transform="translate(-33.822 -190.831)" fill="#95b67b"></path><path id="Path_70" data-name="Path 70" d="M16.55,67.6H13.009V66.523c0-6.069-.021-12.138.022-18.206.007-.92-.272-1.12-1.141-1.109-3.606.047-7.213.02-10.82.02H.008c0-2.062-.033-4.046.034-6.027.011-.311.44-.651.739-.9Q10.476,32.15,20.186,24.02L48.491.286c.089-.074.184-.14.377-.286L72.045,19.434,69.716,22.2,48.888,4.75c-.259.194-.495.353-.712.535Q26.2,23.7,4.227,42.118a1.152,1.152,0,0,0-.483,1.5H4.75c3.636,0,7.272.016,10.908-.014.7-.006.973.151.97.914-.026,7.417-.015,14.835-.018,22.252,0,.258-.036.517-.059.827" transform="translate(0)" fill="#95b67b"></path></g></g></g></svg>