<svg xmlns="http://www.w3.org/2000/svg" xmlns:xlink="http://www.w3.org/1999/xlink" width="260" height="100" viewBox="0 0 260 100"><defs><clipPath id="clip-path"><rect id="Rectangle_13" data-name="Rectangle 13" width="260" height="100" transform="translate(278 3056)" fill="#fff" stroke="#707070" stroke-width="1"></rect></clipPath><clipPath id="clip-path-2"><rect id="Rectangle_11" data-name="Rectangle 11" width="89.923" height="90" fill="#95b67b" stroke="#95b67b" stroke-width="0.4"></rect></clipPath></defs><g id="Mask_Group_1" data-name="Mask Group 1" transform="translate(-278 -3056)" clip-path="url(#clip-path)"><g id="Group_27" data-name="Group 27" transform="translate(363 3061)"><g id="Group_26" data-name="Group 26" clip-path="url(#clip-path-2)"><path id="Path_42" data-name="Path 42" d="M29.751,52.787c1.853-1.748,3.876-2.351,6.1-1.291a6.549,6.549,0,0,1,2.3,1.969c2.91,3.9,5.741,7.864,8.574,11.823A1.465,1.465,0,0,0,48.1,66c1.926-.043,3.853-.015,5.825-.015V59.655a9.087,9.087,0,0,1-5.07-.064c-4.064-1.257-6.358-5.219-4.961-8.876a5.808,5.808,0,0,0,.345-3.737,5.626,5.626,0,0,1,3-6.118,5.218,5.218,0,0,0,1.788-1.669c2.7-3.843,8.693-4.274,12.135-.91.177.173.343.358.425.444a29.554,29.554,0,0,1,3.221-2.655,6.043,6.043,0,0,0,2.041-1.894c3.79-5.839,13.24-5.457,16.629.614a2.451,2.451,0,0,0,1.06.935,7.432,7.432,0,0,1,3.875,10.01.973.973,0,0,0,.042.826c3.429,4.9.686,11.41-5.571,13.035a12.167,12.167,0,0,1-3.237.348,24.189,24.189,0,0,1-3.16-.452v6.489h.97q5.245,0,10.489,0c1.515,0,2.047.5,1.979,2.037-.836,18.69-9.539,32.483-26.468,40.363-24.468,11.39-53.287-1.724-61.383-27.474A44.323,44.323,0,0,1,.032,67.921c-.012-1.38.406-1.769,1.8-1.968a1.775,1.775,0,0,0,.986-.7q6.693-8.79,13.35-17.608c2.708-3.572,6.975-3.562,9.695.015,1.281,1.686,2.561,3.373,3.889,5.124M2.9,68.979c.363,2.485.592,4.845,1.062,7.157a42.013,42.013,0,0,0,45.494,33.1,2.954,2.954,0,0,0,2.509-1.449c.469-.807,1.085-1.527,1.571-2.325,3.18-5.231,4.869-10.807,3.611-16.963-.888-4.343-3.129-7.7-7.4-9.449a22.757,22.757,0,0,1-2.267-1.108c-3.694-2.015-7-4.481-9.107-8.237a1.265,1.265,0,0,0-1.3-.743q-16.483.027-32.966.013Zm38.511,0c.333.449.538.749.767,1.028a24.265,24.265,0,0,0,8.718,6.3,18.237,18.237,0,0,1,3.551,2.04c4.177,3.32,5.844,7.888,6.075,13.05a27.224,27.224,0,0,1-4.5,15.76l-.609.982A41.141,41.141,0,0,0,71.823,99.7a.993.993,0,0,0,.115-.922,17.347,17.347,0,0,1-1.153-12.742c.6-2.222,1.441-4.384,1.98-6.62,1.074-4.457-.58-8.018-4.542-9.987A4.494,4.494,0,0,0,66.354,69c-2.713-.046-5.428-.02-8.143-.02Zm35.044-19.3c.787-.517,1.419-.955,2.073-1.357a1.493,1.493,0,1,1,1.682,2.462,11.614,11.614,0,0,1-2.029,1.334,2.686,2.686,0,0,0-1.707,3.338,1.328,1.328,0,0,0,.575.886,7.421,7.421,0,0,0,7.912-1.083,5.061,5.061,0,0,0,.5-7.611c-.939-1.034-.961-1.445-.142-2.608a3.993,3.993,0,0,0-.411-5.369,7.549,7.549,0,0,0-2.262-1.424,2.727,2.727,0,0,1-1.612-1.532A6.02,6.02,0,0,0,75.4,33.04c-2.633-.152-4.935.712-6.233,3.135a4.509,4.509,0,0,1-2.459,2.3A4.292,4.292,0,0,0,64.774,45.3c.663.816.535,1.4-.289,2.308a5.111,5.111,0,0,0,.706,7.855,7.363,7.363,0,0,0,5.922,1.4c2.356-.413,2.33-.431,2.357-2.754a1.281,1.281,0,0,0-.684-1.279c-1.038-.631-2.04-1.324-3.038-2.02a1.5,1.5,0,1,1,1.64-2.489c.652.4,1.284.84,2.067,1.356,0-1.1-.011-2.026,0-2.95.016-1.046.574-1.695,1.45-1.722.909-.028,1.522.649,1.539,1.728.015.923,0,1.847,0,2.942m-1.916,47.5c6.911-6,13.493-21.193,12.253-28.138H72.864a11.323,11.323,0,0,1,2.83,4.889,14.831,14.831,0,0,1-.641,8.543c-.609,1.861-1.243,3.726-1.671,5.633a13.42,13.42,0,0,0,1.154,9.073M27.924,55.359l-4.341-5.747c-1.647-2.18-3.5-2.179-5.152,0Q12.645,57.258,6.857,64.9c-.236.312-.458.636-.682.949.093.069.116.1.138.1,4.491.011,8.981.027,13.472.011a1.085,1.085,0,0,0,.749-.407c2.466-3.372,4.908-6.762,7.391-10.2m33.921,1.1c-2.339-3.316-2.562-6.588-.355-9.942a.8.8,0,0,0,.068-.67c-.706-1.368-.808-2.939-1.656-4.29a4.935,4.935,0,0,0-4.2-2.524,4.4,4.4,0,0,0-4.421,2.241,3.977,3.977,0,0,1-2.155,2,2.967,2.967,0,0,0-1.5,4.469c.816,1.272.8,1.486-.208,2.692a3.553,3.553,0,0,0,.243,5.057A5.316,5.316,0,0,0,53.3,56.656a1.115,1.115,0,0,0,.642-.714c.088-.483.2-1.056-.515-1.315a10.184,10.184,0,0,1-1.587-.794,1.449,1.449,0,0,1-.688-1.981,1.466,1.466,0,0,1,1.979-.694c.254.1.506.2.843.335,0-.583,0-1.078,0-1.573.009-1.239.577-1.947,1.538-1.919.927.026,1.454.707,1.457,1.907.005,1.936-.017,3.872.022,5.807a1.108,1.108,0,0,0,.44.859,5.351,5.351,0,0,0,4.414-.122m-18.384,9.5c-.2-.313-.343-.564-.511-.8q-3.559-4.928-7.125-9.851c-1.295-1.786-2.862-1.794-4.149-.019q-3.595,4.96-7.178,9.928c-.153.212-.277.446-.456.738Zm29.94-.006V59.391a11,11,0,0,1-8.746-.693.811.811,0,0,0-.669.04,8.891,8.891,0,0,1-6.957.922v6.289Z" transform="translate(-0.024 -22.516)" fill="#95b67b" stroke="#95b67b" stroke-width="0.4"></path><path id="Path_43" data-name="Path 43" d="M13.526,18.169A11.9,11.9,0,0,1,8.6,16.557a1.812,1.812,0,0,0-1.177-.232A6.009,6.009,0,1,1,5,4.561a1.931,1.931,0,0,0,1.081-.689,8.983,8.983,0,0,1,14.693-.113,2.062,2.062,0,0,0,1.406.888,5.964,5.964,0,0,1,4.765,6.527,5.841,5.841,0,0,1-6.208,5.247,6.294,6.294,0,0,0-3.56.718,20.842,20.842,0,0,1-3.649,1.031M6.274,7.5A3.057,3.057,0,0,0,3.226,9.35a2.973,2.973,0,0,0,.686,3.278,2.846,2.846,0,0,0,3.369.54,1.926,1.926,0,0,1,2.3.338,5.852,5.852,0,0,0,7.862-.036,1.863,1.863,0,0,1,2.222-.312,2.847,2.847,0,0,0,3.438-.577,2.859,2.859,0,0,0,.65-3.2A2.9,2.9,0,0,0,20.8,7.517,1.9,1.9,0,0,1,18.823,6.3a5.689,5.689,0,0,0-5.366-3.284,5.721,5.721,0,0,0-5.335,3.34A1.689,1.689,0,0,1,6.274,7.5" transform="translate(0 0)" fill="#95b67b" stroke="#95b67b" stroke-width="0.4"></path><path id="Path_44" data-name="Path 44" d="M162.076,13.515a1.392,1.392,0,0,1,1.461-1.39,21.875,21.875,0,0,1,2.5.613,2.527,2.527,0,0,0,1.047,0,22.359,22.359,0,0,1,2.5-.618,1.393,1.393,0,0,1,1.47,1.382,1.419,1.419,0,0,1-1.313,1.542c-1.15.043-1.574.634-1.7,1.683a1.423,1.423,0,0,1-1.518,1.343,1.407,1.407,0,0,1-1.432-1.337c-.116-1.047-.537-1.646-1.691-1.689a1.417,1.417,0,0,1-1.321-1.535" transform="translate(-121.605 -9.092)" fill="#95b67b" stroke="#95b67b" stroke-width="0.4"></path><path id="Path_45" data-name="Path 45" d="M121.874,59.349a8.752,8.752,0,0,0,2.715,1.037c.918.028,1.834-.671,2.788-.83a1.418,1.418,0,0,1,1.665,1.368,1.471,1.471,0,0,1-1.487,1.573,1.453,1.453,0,0,0-1.484,1.374c-.212,1.149-.7,1.657-1.547,1.638-.823-.018-1.282-.507-1.477-1.609a1.45,1.45,0,0,0-1.458-1.4,1.472,1.472,0,0,1-1.52-1.544c.037-.878.726-1.447,1.805-1.606" transform="translate(-90.087 -44.53)" fill="#95b67b" stroke="#95b67b" stroke-width="0.4"></path></g></g></g></svg>