<svg xmlns="http://www.w3.org/2000/svg" xmlns:xlink="http://www.w3.org/1999/xlink" width="260" height="100" viewBox="0 0 260 100"><defs><clipPath id="clip-path"><rect id="Rectangle_17" data-name="Rectangle 17" width="260" height="100" transform="translate(830 3328)" fill="#95b67b"></rect></clipPath><clipPath id="clip-path-2"><rect id="Rectangle_21" data-name="Rectangle 21" width="91.458" height="90" fill="#95b67b"></rect></clipPath></defs><g id="Mask_Group_5" data-name="Mask Group 5" transform="translate(-830 -3328)" clip-path="url(#clip-path)"><g id="Group_35" data-name="Group 35" transform="translate(914 3333)"><g id="Group_34" data-name="Group 34" clip-path="url(#clip-path-2)"><path id="Path_58" data-name="Path 58" d="M91.458,24.724a5.053,5.053,0,0,1-3.469,2.828,22.992,22.992,0,0,1-13.876.024A17.364,17.364,0,0,1,71.22,25.91a2.291,2.291,0,0,0-1.054-.288c-5.567-.018-11.133-.012-16.7-.012q-13.887,0-27.774.005a13.472,13.472,0,0,0-2.175,26.8,20.884,20.884,0,0,0,2.668.168c13.158.011,26.316-.022,39.474.02A16.185,16.185,0,0,1,80.28,60.935a16.988,16.988,0,0,1,2.193,9.34,16.4,16.4,0,0,1-8.288,14.573,15.289,15.289,0,0,1-7.544,2.189c-2.171.067-4.346.032-6.519.032q-19.291,0-38.581-.008a2.138,2.138,0,0,0-1.645.623,8.615,8.615,0,0,1-4.534,1.923,24.137,24.137,0,0,1-11.48-.454,8.655,8.655,0,0,1-2.461-1.206c-1.962-1.379-1.874-3.563.141-4.9a12.385,12.385,0,0,1,5.12-1.7c.285-.044.568-.1.988-.169-1.352-1.608-2.614-3.1-3.872-4.6a9.171,9.171,0,0,1-2.217-6.931A9.073,9.073,0,0,1,9.019,61.71,9,9,0,0,1,17.27,76.495c-1.281,1.523-2.556,3.052-3.894,4.651,1.181.26,2.274.478,3.355.745A6.922,6.922,0,0,1,20.294,83.8a1.19,1.19,0,0,0,.8.247c15,.01,30.007.06,45.011-.019a13.3,13.3,0,0,0,13.3-12.3c.486-4.978-.7-9.408-4.6-12.82a12.347,12.347,0,0,0-8.2-3.264c-12.413-.054-24.827-.018-37.24-.054a49.483,49.483,0,0,1-6.852-.33A16.292,16.292,0,0,1,9.263,41.9c-1.251-8.254,3.078-15.677,10.911-18.356a18.982,18.982,0,0,1,5.954-.909c14.616-.074,29.233-.043,43.85-.03A2.1,2.1,0,0,0,71.536,22c1.545-1.4,3.534-1.741,5.5-2.088l1.1-.195c-1.335-1.586-2.591-3.083-3.852-4.574a8.894,8.894,0,0,1-.417-11.5A8.471,8.471,0,0,1,82.553.289a8.5,8.5,0,0,1,6.913,6,8.742,8.742,0,0,1-1.767,8.76c-1.25,1.508-2.511,3.008-3.874,4.64.777.143,1.439.215,2.073.391a28.607,28.607,0,0,1,3.131,1,4.006,4.006,0,0,1,2.428,2.568ZM80.947,18.449c1.649-1.972,3.25-3.8,4.755-5.709a5.979,5.979,0,0,0-8.427-8.346,5.823,5.823,0,0,0-1.413,7.753c1.5,2.193,3.333,4.157,5.084,6.3M10.5,79.933c1.765-2.158,3.588-4.124,5.1-6.306a5.854,5.854,0,0,0-1.28-7.647,6,6,0,0,0-7.773.1,5.811,5.811,0,0,0-1.088,7.67C6.98,75.869,8.75,77.8,10.5,79.933M3.284,85.539c2.277,1.992,12.065,2.01,14.4.012-2.787-1.929-11.41-1.936-14.4-.012M88.184,24.1c-2.8-1.961-11.752-1.956-14.429.007,2.765,1.971,11.668,1.967,14.429-.007" transform="translate(0 -0.086)" fill="#95b67b"></path><path id="Path_59" data-name="Path 59" d="M18.718,4.758A8.013,8.013,0,0,1,22.4.948a7.893,7.893,0,0,1,8.447.59,7.76,7.76,0,0,1,3.374,8.249,7.752,7.752,0,0,1-5.542,6.273,8.19,8.19,0,0,1-2.443.42c-3.508.025-7.02.071-10.523-.075a5.81,5.81,0,0,1-5.269-5.85,5.883,5.883,0,0,1,5.2-5.924,24.8,24.8,0,0,1,3.077.127m2.611,8.773v0c1.606,0,3.213,0,4.82,0a5.465,5.465,0,0,0,.708-.086,5.159,5.159,0,0,0,4.527-5.224,5.214,5.214,0,0,0-4.638-5.144,5.157,5.157,0,0,0-5.611,3.918C20.64,8.9,19.776,9.226,18.151,8.1a2.988,2.988,0,1,0-1.642,5.421c1.6.052,3.213.01,4.819.01" transform="translate(-7.425 0)" fill="#95b67b"></path><path id="Path_60" data-name="Path 60" d="M109.105,105.057l-2.175,2.184-3.116-3.348-.232.129c0,1.417-.028,2.834.025,4.249.01.268.3.558.524.78,1.635,1.647,3.284,3.28,4.9,4.886l-2.215,2.115-2.963-3.159-.228.1v6.564h-2.993v-6.571l-3.167,3.336-2.369-2.308c1.635-1.637,3.257-3.29,4.916-4.906a1.8,1.8,0,0,0,.606-1.484c-.045-1.186-.013-2.375-.013-3.526l-3.166,3.229-2.274-2.34c.153-.162.381-.419.623-.661,1.662-1.664,3.32-3.333,4.993-4.985a1.573,1.573,0,0,1,2.615,0c1.9,1.884,3.786,3.786,5.712,5.714" transform="translate(-67.604 -70.129)" fill="#95b67b"></path><path id="Path_61" data-name="Path 61" d="M131.993,228.579h-2.974c0-.834-.024-1.628.009-2.42a.858.858,0,0,0-.642-.985,5.931,5.931,0,0,1-3.35-8,1.48,1.48,0,0,0,.017-1.047,5.987,5.987,0,1,1,11.279-3.844,6.183,6.183,0,0,1-.325,3.765,1.637,1.637,0,0,0-.029,1.123,5.937,5.937,0,0,1-3.349,8,.857.857,0,0,0-.643.984c.032.769.008,1.541.008,2.422M130.5,210.652a2.874,2.874,0,0,0-2.612,1.558,2.644,2.644,0,0,0,.142,3.032,2.037,2.037,0,0,1-.011,2.805,2.837,2.837,0,0,0,.553,3.855,2.939,2.939,0,0,0,3.848.012,2.818,2.818,0,0,0,.577-3.848,2.1,2.1,0,0,1,.016-2.884,2.625,2.625,0,0,0,.073-3.032,2.881,2.881,0,0,0-2.585-1.5" transform="translate(-88.526 -147.638)" fill="#95b67b"></path><path id="Path_62" data-name="Path 62" d="M163.124,16.506v3.035h-3.011c0-.786-.023-1.607.008-2.426a.786.786,0,0,0-.584-.912,5.918,5.918,0,0,1-2.472-9.463,1.252,1.252,0,0,0,.2-.925,4.5,4.5,0,1,1,8.673.027,1.03,1.03,0,0,0,.126.793,5.98,5.98,0,0,1-2.735,9.729,1.086,1.086,0,0,0-.206.143m-4.481-5.841a2.9,2.9,0,0,0,2.318,2.872,2.971,2.971,0,0,0,2.428-5.278C162.063,7.192,162,6.93,162.833,5.45a1.411,1.411,0,0,0-.262-1.923,1.349,1.349,0,0,0-1.868-.046,1.424,1.424,0,0,0-.3,1.985c.8,1.418.73,1.788-.585,2.821a2.91,2.91,0,0,0-1.174,2.378" transform="translate(-110.637 -0.113)" fill="#95b67b"></path><path id="Path_63" data-name="Path 63" d="M176.392,212.22h2.874v4.37h3.029v-8.85h3V216.6h2.985v-2.832h2.932a29.042,29.042,0,0,1-.032,3.608,2.82,2.82,0,0,1-2.815,2.285c-.5.021-1.011.008-1.517.008h-1.509V228.6h-2.988v-8.928c-.924,0-1.773,0-2.622,0-2.239-.01-3.408-1.161-3.434-3.4-.014-1.249,0-2.5.009-3.748a1.314,1.314,0,0,1,.091-.3" transform="translate(-125.328 -147.689)" fill="#95b67b"></path><path id="Path_64" data-name="Path 64" d="M272.752,26.852a2.973,2.973,0,1,1,2.986-2.994,2.949,2.949,0,0,1-2.986,2.994" transform="translate(-191.786 -14.863)" fill="#95b67b"></path><path id="Path_65" data-name="Path 65" d="M28.962,239.5a2.982,2.982,0,1,1,2.965-3.021,2.981,2.981,0,0,1-2.965,3.021" transform="translate(-18.453 -166.03)" fill="#95b67b"></path></g></g></g></svg>