<svg xmlns="http://www.w3.org/2000/svg" xmlns:xlink="http://www.w3.org/1999/xlink" width="260" height="100" viewBox="0 0 260 100"><defs><clipPath id="clip-path"><rect id="Rectangle_14" data-name="Rectangle 14" width="260" height="100" transform="translate(830 3056)" fill="#fff" stroke="#707070" stroke-width="1"></rect></clipPath><clipPath id="clip-path-2"><rect id="Rectangle_12" data-name="Rectangle 12" width="90.041" height="90" fill="#95b67b"></rect></clipPath></defs><g id="Mask_Group_2" data-name="Mask Group 2" transform="translate(-830 -3056)" clip-path="url(#clip-path)"><g id="Group_29" data-name="Group 29" transform="translate(915 3061)"><g id="Group_28" data-name="Group 28" clip-path="url(#clip-path-2)"><path id="Path_46" data-name="Path 46" d="M49.561,62.606c-.868-.6-1.529-1.149-2.266-1.557-2.862-1.583-5.764-3.1-8.622-4.685a24.092,24.092,0,0,1-6.622-4.941,7.179,7.179,0,0,1-.9-8.977,18.978,18.978,0,0,1,5.743-5.787c.939-.666,1.921-1.272,2.858-2.067-1.785.144-3.572.266-5.354.441-1.243.122-2.486.278-3.712.508a2.077,2.077,0,0,0-1.012.685C28.7,37.3,27.848,38.491,26.8,39.477a1.349,1.349,0,0,0-.493,1.5,21.884,21.884,0,0,1,.358,8.856c-.98,5.28-3.663,9.159-8.9,10.972a1.574,1.574,0,0,0-.264.166,11.09,11.09,0,0,0,1.361,5.006c.124.237.273.461.394.7a1.478,1.478,0,0,1-.523,2.091,1.5,1.5,0,0,1-2.085-.588,14.128,14.128,0,0,1-2.007-5.49c-.055-.38-.112-.76-.173-1.178H12.785c-.641,1.92-1.238,3.744-1.865,5.557a5.122,5.122,0,0,1-.553,1.017,1.511,1.511,0,0,1-2.124.677c-.769-.442-.877-1.238-.486-2.177.6-1.444,1.116-2.927,1.62-4.409a3.386,3.386,0,0,0,.092-.992A41.253,41.253,0,0,1,4.9,58.335c-2.966-2.427-4.25-5.775-4.748-9.5C-.387,44.775.581,40.9,1.606,37.05a119.219,119.219,0,0,1,7.3-20.372,15.179,15.179,0,0,1,1.558-2.135,4.752,4.752,0,0,0,.566-.978c1.4-3.5,2.769-7.02,4.171-10.523A4.4,4.4,0,0,1,19.415,0a4.444,4.444,0,0,1,4.307,2.914,100.175,100.175,0,0,1,7.44,22.465A18.347,18.347,0,0,1,31.1,32.4l3.535-.41a10.553,10.553,0,0,1,3.037-9.518,10.366,10.366,0,0,1,7.243-3c4.858-.144,11.529,4.17,10.484,12.516l3.432.411c-.086-.7-.163-1.3-.236-1.909a24.4,24.4,0,0,1,1.059-9.077A104.352,104.352,0,0,1,66.3,2.8,4.448,4.448,0,0,1,71.483.131a4.556,4.556,0,0,1,3.2,2.734,97.628,97.628,0,0,1,5.866,15.875,71.992,71.992,0,0,1,1.812,8.626A13.964,13.964,0,0,1,80.4,36.533c-.072.124-.126.259-.264.546,2.05.378,4.018.751,5.991,1.1.82.144,1.649.237,2.474.347a1.487,1.487,0,1,1-.32,2.949q-2.919-.375-5.823-.873c-1.405-.242-2.79-.6-4.193-.859a1.719,1.719,0,0,0-.973.174c-.723.343-1.4.795-2.127,1.116a.775.775,0,0,0-.541.873,10.863,10.863,0,0,0,1.333,4.769,5.788,5.788,0,0,1,.444.873,1.46,1.46,0,0,1-.807,1.782,1.487,1.487,0,0,1-1.943-.6,13.42,13.42,0,0,1-2-6.041c-.018-.2-.034-.406-.054-.646H69.443a29.306,29.306,0,0,1-.679,3.283,20.637,20.637,0,0,1-1.424,3.254,1.453,1.453,0,0,1-2.107.692,1.475,1.475,0,0,1-.472-2.168,11.306,11.306,0,0,0,1.567-5.156.807.807,0,0,0-.593-.922,11.257,11.257,0,0,1-5.492-4.9,1.277,1.277,0,0,0-.795-.57c-1.618-.239-3.244-.426-4.872-.587a1.117,1.117,0,0,0-.863.253,39.5,39.5,0,0,0-3.6,4.854c-1.627,2.914-.867,4.934,2.23,6.195,3,1.22,6.082,2.229,9.116,3.363a54.946,54.946,0,0,1,12.35,5.93,20.821,20.821,0,0,1,3.861,3.412c2.664,3.08,2.76,6.648.447,10.016a18.549,18.549,0,0,1-5.93,5.478c-3.633,2.14-7.363,4.12-11.1,6.068a70.739,70.739,0,0,0-12.4,8.051A5.992,5.992,0,0,1,44.669,90c-11.344-.025-22.689-.011-34.034-.016-2.21,0-3.622-1.449-3.311-3.457a3.915,3.915,0,0,1,.719-1.6A40.279,40.279,0,0,1,23.661,72.351a116.124,116.124,0,0,1,17.513-6.3c2.439-.734,4.788-1.772,7.168-2.7a8.98,8.98,0,0,0,1.219-.747M10.251,86.971H11.3q16.7,0,33.408.012a3.017,3.017,0,0,0,2.034-.715A78.125,78.125,0,0,1,62,76.754c3.067-1.491,6.017-3.242,8.924-5.032a14.9,14.9,0,0,0,4.977-4.8,4.562,4.562,0,0,0-.281-5.79,10.048,10.048,0,0,0-2.146-2.125,31.74,31.74,0,0,0-5.325-3.23c-5.141-2.175-10.385-4.108-15.566-6.19a17.038,17.038,0,0,1-3.626-1.868,5.8,5.8,0,0,1-2.334-6.774,26.065,26.065,0,0,1,2.135-4.474,15.87,15.87,0,0,1,1.262-1.783l-.081-.267c-1.2.093-2.523-.114-3.559.341A58.341,58.341,0,0,0,39.8,38.32a18.308,18.308,0,0,0-5.552,4.842c-1.842,2.551-1.737,4.7.6,6.809a29.761,29.761,0,0,0,4.91,3.528c2.923,1.713,5.982,3.19,8.921,4.877a12.6,12.6,0,0,1,2.969,2.383,2.908,2.908,0,0,1-.209,4.176,5.629,5.629,0,0,1-1.385.95c-4.01,2.094-8.384,3.164-12.673,4.476-6.157,1.883-12.171,4.1-17.616,7.633a34.168,34.168,0,0,0-9.51,8.977M24.1,46.833c-.178-1.558-.248-2.689-.445-3.8A95.784,95.784,0,0,0,18.8,26.284c-1.071-2.863-2.287-5.673-3.517-8.473a1.889,1.889,0,0,0-3.266-.534,3.593,3.593,0,0,0-.438.771,118.267,118.267,0,0,0-7.99,23.493,18.084,18.084,0,0,0,.134,9.605,9.82,9.82,0,0,0,9.631,7.331,9.638,9.638,0,0,0,9.724-6.919A37.93,37.93,0,0,0,24.1,46.833m46.624-7.866a8,8,0,0,0,7.367-4.431,12.257,12.257,0,0,0,1.124-8.489,96.153,96.153,0,0,0-7.2-21.79c-.318-.7-.735-1.253-1.569-1.24s-1.216.6-1.539,1.286a101.006,101.006,0,0,0-6.025,16.665c-.854,3.154-1.677,6.308-1.28,9.66.6,5.052,3.9,8.247,9.119,8.339M14.072,13.436a5.55,5.55,0,0,1,4.19,3.584,131.756,131.756,0,0,1,6.8,18.858c.076.277.189.543.294.84a1.574,1.574,0,0,0,.269-.173c.144-.151.278-.31.41-.471a11.578,11.578,0,0,0,2.273-9.591,66.6,66.6,0,0,0-3.394-12.46C23.685,10.646,22.254,7.342,20.9,4.01a1.315,1.315,0,0,0-1.435-.973,2,2,0,0,0-1.319.858c-1.4,3.114-2.7,6.271-4.078,9.54M37.756,31.742c.985-.054,1.93-.154,2.875-.148q5.439.031,10.877.129c.535.01.895-.052.86-.67a15.511,15.511,0,0,0-.248-3.25,7.449,7.449,0,0,0-14.363,3.939" transform="translate(0 0)" fill="#95b67b"></path><path id="Path_47" data-name="Path 47" d="M146.309,54.073a3.134,3.134,0,0,1,.976.7,24.216,24.216,0,0,1,1.568,2.68,1.485,1.485,0,0,1-2.584,1.464c-.55-.876-1.084-1.769-1.544-2.7-.505-1.018.21-2.141,1.584-2.153" transform="translate(-110.066 -41.17)" fill="#95b67b"></path><path id="Path_48" data-name="Path 48" d="M185.217,47.032c0,.535.043,1.075-.009,1.605a1.369,1.369,0,0,1-1.33,1.32,1.325,1.325,0,0,1-1.551-1.145,23.017,23.017,0,0,1,0-3.644,1.3,1.3,0,0,1,1.459-1.16,1.41,1.41,0,0,1,1.42,1.328c.046.561.009,1.129.01,1.694" transform="translate(-138.764 -33.507)" fill="#95b67b"></path><path id="Path_49" data-name="Path 49" d="M216.308,54.16c1.333-.038,2.13,1.022,1.673,2.022a21.828,21.828,0,0,1-1.686,2.935,1.414,1.414,0,0,1-1.985.364,1.44,1.44,0,0,1-.541-1.88,27.392,27.392,0,0,1,1.676-2.84,2.515,2.515,0,0,1,.864-.6" transform="translate(-162.637 -41.235)" fill="#95b67b"></path><path id="Path_50" data-name="Path 50" d="M25.134,189.335c0-.03,0-.059,0-.089-.05-1.42.391-2.124,1.371-2.191s1.467.613,1.608,2a15.25,15.25,0,0,0,.564,3.14,3.738,3.738,0,0,0,3.61,2.69c1.2.076,1.88.694,1.8,1.62s-.859,1.464-2.032,1.369c-3.6-.291-6-2.588-6.688-6.42-.125-.7-.184-1.412-.274-2.118l.039-.005" transform="translate(-19.107 -142.415)" fill="#95b67b"></path><path id="Path_51" data-name="Path 51" d="M275.975,122.066c-2.851-.11-4.764-1.793-5.431-4.863a13.825,13.825,0,0,1-.255-2.566,1.472,1.472,0,0,1,1.391-1.56,1.513,1.513,0,0,1,1.575,1.392c.1.734.093,1.488.244,2.21a2.61,2.61,0,0,0,2.737,2.407,1.525,1.525,0,0,1,1.528,1.528,1.562,1.562,0,0,1-1.789,1.452" transform="translate(-205.79 -86.091)" fill="#95b67b"></path></g></g></g></svg>