<svg xmlns="http://www.w3.org/2000/svg" xmlns:xlink="http://www.w3.org/1999/xlink" width="260" height="100" viewBox="0 0 260 100"><defs><clipPath id="clip-path"><rect id="Rectangle_18" data-name="Rectangle 18" width="260" height="100" transform="translate(278 3328)" fill="#95b67b"></rect></clipPath><clipPath id="clip-path-2"><rect id="Rectangle_20" data-name="Rectangle 20" width="90.217" height="90" fill="#95b67b"></rect></clipPath></defs><g id="Mask_Group_4" data-name="Mask Group 4" transform="translate(-278 -3328)" clip-path="url(#clip-path)"><g id="Group_33" data-name="Group 33" transform="translate(363 3333)"><g id="Group_32" data-name="Group 32" clip-path="url(#clip-path-2)"><path id="Path_55" data-name="Path 55" d="M87.378,90c-19.934-.02-39.639-.022-58.114-.022H2.6a6.6,6.6,0,0,1-.791-.035A1.9,1.9,0,0,1,.16,88.673,1.9,1.9,0,0,1,.31,86.86a2.384,2.384,0,0,1,2.016-.983q1.7-.02,3.408-.017,1.225,0,2.449,0t2.452,0H12.39v-2.43c0-3.278,0-6.375-.019-9.531a1.3,1.3,0,0,0-.825-1.05,12.846,12.846,0,0,1-6.77-6.325,37.431,37.431,0,0,1-3.4-27.568C3.24,31.7,6.849,24.414,12.737,16.026a2.14,2.14,0,0,1,1.724-.99,2.108,2.108,0,0,1,1.731,1.029c1.288,1.942,2.541,3.959,3.753,5.909q.761,1.225,1.527,2.448c.106.169.207.34.309.512l.385.645,1.215-.315v-.482c0-.824-.023-1.66-.045-2.468a40.364,40.364,0,0,1,.081-5.222A19.342,19.342,0,0,1,42.539,0a18.75,18.75,0,0,1,4.3.5A19.406,19.406,0,0,1,61.936,19.581c.015,2.018.014,4.07.012,6.056,0,2.231,0,4.537.019,6.807a2.542,2.542,0,0,0,.765,1.732c2.444,2.215,4.954,4.438,7.382,6.587l1.825,1.616c.907.8,1.816,1.607,2.774,2.452l2.476,2.187v-4.71q0-2.705,0-5.411c0-1.472.792-2.387,2.056-2.387,1.282,0,2.043.9,2.045,2.406s0,3.023,0,4.534q0,2.736,0,5.471c0,.312-.022.638-.045.983a5.717,5.717,0,0,0,.24,2.7A5.25,5.25,0,0,0,83.3,52.516c.278.211.541.41.774.618q.887.792,1.78,1.579c1.146,1.014,2.332,2.063,3.478,3.113a2.008,2.008,0,0,1,.353,2.674,1.941,1.941,0,0,1-1.656.883,2.475,2.475,0,0,1-.983-.212c-.11-.047-.222-.09-.344-.137l-1.026-.4V85.9l.655-.032c.364-.018.667-.03.966-.03,1.417,0,2.4.271,2.922,1.6v1.011C89.729,89.549,88.9,90,87.386,90ZM54.767,33.313l-.133.09a1.964,1.964,0,0,0-.225.167l-2.6,2.306C44.449,42.4,36.839,49.153,29.374,55.813a2.308,2.308,0,0,0-.64,1.624c-.022,8.264-.019,16.665-.017,24.79v2.1c0,.215.015.426.03.63.007.094.014.189.02.287l.034.588h6.506V78.155q0-7.5,0-15.007c0-1.745.754-2.491,2.514-2.495q2,0,4,0l5.462,0c2.141,0,2.794.643,2.794,2.75,0,5.015,0,22.409,0,22.409H81.437l.033-.588c.006-.1.013-.2.019-.286.014-.2.028-.388.028-.585V81.16c0-7.8.005-15.857-.025-23.785a2.512,2.512,0,0,0-.806-1.723c-7.333-6.544-14.809-13.174-22.039-19.587l-2.394-2.124c-.171-.151-.35-.293-.523-.43-.073-.058-.145-.115-.214-.171l-.365-.3ZM23.488,67.9c-.321.334-.631.673-.939,1.011a19.367,19.367,0,0,1-2.058,2.049,19.8,19.8,0,0,1-2.447,1.6c-.4.235-.8.472-1.2.723l-.293.183V85.819h8.011V66.789ZM39.462,85.811H45.9V64.8H39.462ZM14,21.555c-.053.071-.1.133-.144.189-.1.128-.179.234-.25.345a86,86,0,0,0-6.472,12.4A35.226,35.226,0,0,0,6.829,61.45,14.692,14.692,0,0,0,11.1,67.9a5.266,5.266,0,0,0,3.365,1.364h0a5.272,5.272,0,0,0,3.409-1.406,15.115,15.115,0,0,0,3.905-5.675l.192-.44-.376-.3c-.932-.74-1.394-1.406-1.412-2.035a2.961,2.961,0,0,1,1.271-2.085c.193-.172.388-.343.584-.513.43-.375.874-.763,1.3-1.172A2.217,2.217,0,0,0,24,54.49,34.18,34.18,0,0,0,24.414,44C23.134,35.4,18.9,27.927,15.035,21.6l-.482-.788ZM42.5,4.123c-.489,0-.986.023-1.477.068A15.181,15.181,0,0,0,27.336,19.483c-.014,5.067-.008,10.217,0,15.2l0,2.661a6.2,6.2,0,0,0,.12,1.177c.12.614.249,1.225.378,1.837.24,1.137.487,2.313.667,3.471a8.035,8.035,0,0,0,1.8,3.607c.151.2.3.408.45.616l.315.444.483-.251c.048-.025.085-.042.115-.056a1.034,1.034,0,0,0,.262-.163c.665-.589,1.325-1.185,1.985-1.782,1.518-1.372,3.088-2.79,4.7-4.092a4.266,4.266,0,0,0,1.8-4.106,3.308,3.308,0,0,0-.959-2.244c-1.326-1.275-2.638-2.618-3.905-3.916l-.739-.756a2.446,2.446,0,0,1-.756-1.721,1.914,1.914,0,0,1,.6-1.371,1.934,1.934,0,0,1,1.363-.575,2.431,2.431,0,0,1,1.674.757c.33.324.656.672.972,1.009.15.161.3.321.453.481L40.1,30.73l.1-1.408c.135-1.9.158-3.755.179-5.547.009-.725.017-1.447.033-2.168a3.314,3.314,0,0,1,.423-1.539,1.774,1.774,0,0,1,1.562-.84,2.163,2.163,0,0,1,.612.089,2.031,2.031,0,0,1,1.48,2.09q.01,4.684,0,9.368V36.8l1.026-.864.371-.31c.207-.173.37-.308.529-.449q1.17-1.038,2.338-2.077,2.4-2.134,4.808-4.258a2.377,2.377,0,0,1,1.552-.7,2.021,2.021,0,0,1,.944.255c.148.077.3.168.484.284.1.063.213.131.339.207l.945.566V25.811c0-2.413,0-4.692-.009-7.005a11.123,11.123,0,0,0-.186-1.88A15.2,15.2,0,0,0,42.5,4.123" transform="translate(0)" fill="#95b67b"></path><path id="Path_56" data-name="Path 56" d="M228.211,22.317a11.171,11.171,0,0,1-11.151-11.13A11.158,11.158,0,0,1,228.236.044h.036a11.137,11.137,0,0,1-.045,22.273Zm-.037-18.173a7.065,7.065,0,1,0,.047,0Z" transform="translate(-149.332 -0.03)" fill="#95b67b"></path><path id="Path_57" data-name="Path 57" d="M191.372,211.418l-3.7,0q-1.185,0-2.368-.005A2.115,2.115,0,0,1,182.9,209c-.014-4.369-.013-8.367,0-12.223a2.133,2.133,0,0,1,2.438-2.4q3.02-.007,6.04-.007,3.047,0,6.093.007a2.156,2.156,0,0,1,2.463,2.473c.007,4.289.007,8.259,0,12.135a2.134,2.134,0,0,1-2.405,2.428q-1.2.007-2.4.006Zm-4.385-10.805c0,1.914,0,3.721.024,5.567a1.3,1.3,0,0,0,1.12,1.12c1.466.022,2.932.025,4.173.025l3.478,0v-8.778h-8.793Z" transform="translate(-125.821 -133.724)" fill="#95b67b"></path></g></g></g></svg>